<svg width="18" height="18" viewBox="0 0 18 18" fill="none" xmlns="http://www.w3.org/2000/svg">
<path d="M7.85504 0.0482578C4.67109 0.47687 1.98635 2.49803 0.72063 5.42359C0.18604 6.66617 -0.0380156 7.85763 0.00522324 9.28502C0.0288081 10.0675 0.0877702 10.5158 0.252864 11.1764C1.10192 14.5621 3.84169 17.1691 7.24577 17.8376C8.55473 18.0932 10.0209 18.046 11.3299 17.7039C13.9439 17.0197 16.2001 15.0575 17.289 12.5212C18.2442 10.2877 18.2363 7.66495 17.2693 5.43146C16.5185 3.68949 15.2174 2.20704 13.5862 1.23579C12.6428 0.673479 11.6483 0.307783 10.4887 0.0993767C9.89513 -0.00679207 8.46825 -0.0343189 7.85504 0.0482578ZM5.3747 4.84949C5.62234 4.92027 5.88964 5.15227 6.00363 5.3882C6.04687 5.47864 6.12156 5.76176 6.16873 6.01342L6.25127 6.47742H9.38413C12.9454 6.47742 12.7568 6.46169 13.0869 6.792C13.2796 6.98468 13.3975 7.25993 13.3975 7.51553C13.3975 7.70821 12.7686 10.7989 12.6821 11.027C12.6428 11.141 12.5288 11.318 12.4305 11.4281C12.1789 11.7112 11.9549 11.8292 11.491 11.9235L11.377 11.9471L11.5343 12.0179C11.723 12.1044 11.9313 12.3404 11.9824 12.533C12.1357 13.0796 11.7426 13.5947 11.1766 13.5947C10.7835 13.5947 10.4612 13.3431 10.3708 12.9616C10.2764 12.5645 10.4965 12.1398 10.8818 11.9865C10.9486 11.9589 10.4769 11.9471 9.38806 11.9471C7.80787 11.9432 7.79608 11.9471 7.95331 12.0179C8.71982 12.3718 8.53507 13.5279 7.69781 13.5869C7.30866 13.6144 7.02957 13.4689 6.86841 13.1504C6.74262 12.9105 6.77407 12.5173 6.9313 12.2932C6.99813 12.2027 7.11998 12.0887 7.21039 12.0415L7.37155 11.955L7.08854 11.9157C6.9313 11.8921 6.71904 11.8331 6.61291 11.782C6.3692 11.6601 6.04687 11.3455 5.93681 11.1135C5.85819 10.9483 5.33147 8.4278 5.00128 6.64258L4.89121 6.04488H4.56103C4.05002 6.04488 3.80631 5.87186 3.77487 5.47471C3.75128 5.17193 3.92031 4.90847 4.18367 4.8259C4.38414 4.76691 5.14672 4.78264 5.3747 4.84949Z" fill="white"/>
</svg>
