<svg width="14" height="14" viewBox="0 0 14 14" fill="none" xmlns="http://www.w3.org/2000/svg">
    <path d="M6.10948 0.0375338C3.63307 0.370898 1.54494 1.94291 0.56049 4.21835C0.144698 5.1848 -0.0295677 6.11149 0.00406252 7.22168C0.0224063 7.8303 0.0682657 8.17896 0.196672 8.69277C0.857047 11.326 2.98798 13.3537 5.6356 13.8737C6.65368 14.0725 7.79405 14.0358 8.81213 13.7697C10.8452 13.2375 12.6001 11.7114 13.447 9.73874C14.1899 8.00157 14.1838 5.96163 13.4317 4.22447C12.8478 2.8696 11.8358 1.71659 10.567 0.961167C9.83326 0.523818 9.05977 0.239388 8.15786 0.0772934C7.69621 -0.00528336 6.58642 -0.0266924 6.10948 0.0375338ZM4.18033 3.77182C4.37293 3.82688 4.58083 4.00732 4.66949 4.19082C4.70312 4.26117 4.76121 4.48137 4.7979 4.67711L4.8621 5.038H7.29877C10.0687 5.038 9.92192 5.02576 10.1787 5.28267C10.3285 5.43253 10.4203 5.64662 10.4203 5.84541C10.4203 5.99527 9.9311 8.39916 9.86383 8.57655C9.83326 8.66524 9.7446 8.80287 9.66817 8.88851C9.4725 9.10871 9.29823 9.20046 8.93747 9.27386L8.84881 9.29221L8.9711 9.34726C9.11786 9.41455 9.27989 9.59805 9.31964 9.74791C9.43887 10.173 9.13314 10.5737 8.69289 10.5737C8.38716 10.5737 8.13646 10.3779 8.06615 10.0813C7.99277 9.77238 8.16398 9.44207 8.46359 9.3228C8.51557 9.30139 8.14869 9.29221 7.30182 9.29221C6.07279 9.28915 6.06362 9.29221 6.18591 9.34726C6.78208 9.62252 6.63839 10.5217 5.98719 10.5676C5.68451 10.589 5.46745 10.4758 5.3421 10.2281C5.24426 10.0415 5.26872 9.73568 5.39101 9.56135C5.44299 9.49101 5.53776 9.40231 5.60808 9.36561L5.73343 9.29833L5.51331 9.26775C5.39101 9.24939 5.22592 9.20352 5.14337 9.16376C4.95382 9.06895 4.70312 8.82428 4.61752 8.64383C4.55637 8.51538 4.1467 6.55496 3.88988 5.16645L3.80428 4.70157H3.54747C3.15002 4.70157 2.96047 4.56701 2.93601 4.25811C2.91766 4.02261 3.04913 3.8177 3.25397 3.75347C3.40989 3.7076 4.003 3.71983 4.18033 3.77182Z" fill="#493421"/>
</svg>
