<svg width="25" height="24" viewBox="0 0 25 24" fill="none" xmlns="http://www.w3.org/2000/svg">
    <path d="M4.03951 0.0500669C3.16566 0.150116 2.34972 0.555579 1.70222 1.198C1.03367 1.86675 0.659919 2.64608 0.549371 3.60445C0.486201 4.19421 0.480937 6.96926 0.549371 7.60115C0.64939 8.57531 1.00735 9.31251 1.73381 10.0287C2.14441 10.4394 2.29181 10.55 2.71294 10.7501C3.6447 11.2029 3.41834 11.1819 7.52439 11.1819C10.9935 11.1819 11.1619 11.1766 11.3041 11.0818C11.383 11.0291 11.5041 10.908 11.5673 10.8185L11.6831 10.6553V7.02191C11.6831 2.91463 11.7041 3.14106 11.2514 2.20902C11.0514 1.7825 10.9461 1.64032 10.5302 1.23486C9.79324 0.497656 9.10364 0.160648 8.08765 0.0448017C7.54544 -0.0183878 4.58172 -0.0131216 4.03951 0.0500669ZM8.39824 1.72984C9.05626 1.92994 9.54056 2.34593 9.85641 2.98835L10.0512 3.38329L10.067 6.47954L10.0828 9.58107L6.98218 9.56527L3.88685 9.54947L3.49204 9.35464C2.84981 9.0387 2.43394 8.55425 2.2339 7.89603C2.13915 7.59062 2.12862 7.40105 2.12862 5.60016C2.12862 3.45174 2.14441 3.30956 2.46026 2.76719C2.61292 2.50917 3.10249 2.03525 3.36043 1.90361C3.85527 1.64559 3.98687 1.62979 6.08201 1.62979C7.90867 1.62453 8.09292 1.63506 8.39824 1.72984Z" fill="#B3AEAE"/>
    <path d="M16.8315 0.0448322C15.5154 0.187008 14.3257 1.019 13.7309 2.23012C13.2992 3.11476 13.315 2.91993 13.315 7.03248C13.315 10.629 13.315 10.6764 13.4256 10.8185C13.4835 10.8975 13.5993 11.0134 13.6782 11.0713C13.8204 11.1819 13.8678 11.1819 17.4632 11.1819H21.106L21.5218 11.0608C22.2378 10.8554 22.7273 10.5605 23.2643 10.0234C23.996 9.29148 24.3329 8.60167 24.4487 7.58538C24.5172 6.98509 24.5172 4.20477 24.4487 3.60448C24.3803 3.01998 24.1908 2.44601 23.9118 1.96683C23.6538 1.52451 22.9642 0.829429 22.5378 0.576673C22.1114 0.323917 21.4429 0.108022 20.8954 0.0448322C20.3585 -0.0130911 17.4105 -0.0130911 16.8315 0.0448322ZM21.1376 1.70881C21.5587 1.83519 21.8008 1.9721 22.122 2.27224C22.4536 2.59345 22.6326 2.8778 22.7695 3.31486C22.8589 3.60448 22.8695 3.82564 22.8695 5.60019C22.8695 7.40108 22.8589 7.59065 22.7642 7.89606C22.5642 8.55428 22.1483 9.03873 21.5061 9.35467L21.1112 9.5495L18.0159 9.5653L14.9153 9.5811L14.9311 6.47957L14.9469 3.38332L15.1417 2.98838C15.4523 2.35649 15.9366 1.93524 16.5946 1.72461C16.8631 1.64035 17.1105 1.62982 18.874 1.62982C20.5427 1.62456 20.8954 1.64035 21.1376 1.70881Z" fill="#B3AEAE"/>
    <path d="M3.91317 12.8458C3.0867 12.9669 2.37077 13.3355 1.72854 13.9727C1.01262 14.6836 0.64939 15.4208 0.549371 16.3949C0.480937 17.0268 0.486201 19.8019 0.549371 20.3916C0.659919 21.35 1.03367 22.1293 1.70222 22.7981C2.39183 23.4826 3.1604 23.846 4.18691 23.9565C4.53434 23.9934 5.37135 24.0039 6.51893 23.9881C8.09292 23.9671 8.36139 23.9513 8.68777 23.8565C10.0933 23.4668 11.1567 22.4189 11.562 21.0235L11.6831 20.6075V16.9742V13.3408L11.5673 13.1776C11.5041 13.088 11.383 12.9669 11.3041 12.9143C11.1619 12.8195 10.9882 12.8142 7.68231 12.809C5.77142 12.8037 4.07636 12.8195 3.91317 12.8458ZM10.067 17.5165L10.0512 20.6128L9.85641 21.0077C9.54056 21.6501 9.05626 22.0661 8.39824 22.2662C8.09292 22.361 7.90341 22.3715 6.10306 22.3715C4.32378 22.3715 4.10795 22.361 3.81842 22.2715C3.24462 22.0925 2.64977 21.6133 2.40236 21.1288C2.14441 20.6181 2.12862 20.4759 2.12862 18.3906C2.12862 16.595 2.13915 16.4055 2.2339 16.1C2.46553 15.3418 3.013 14.7836 3.78683 14.5151C4.02372 14.4308 4.34483 14.4255 7.06641 14.4203H10.0828L10.067 17.5165Z" fill="#B3AEAE"/>
    <path d="M13.7887 12.8617C13.5729 12.9565 13.3518 13.225 13.315 13.4356C13.2992 13.5304 13.2886 15.1891 13.2992 17.1322C13.3202 20.6234 13.3202 20.6655 13.4413 21.0552C13.6571 21.7766 13.9414 22.24 14.4994 22.7929C15.0679 23.3616 15.4575 23.5985 16.2102 23.825C16.6735 23.9619 16.7156 23.9671 18.4791 23.9935C20.5269 24.0198 21.1375 23.9724 21.8008 23.746C22.4114 23.5353 22.7694 23.3089 23.2695 22.8192C23.9801 22.1188 24.3381 21.3553 24.4539 20.3127C24.4908 19.9704 24.5013 19.1226 24.4855 17.98C24.4592 15.9843 24.4381 15.8473 24.0854 15.0785C23.5538 13.9359 22.4799 13.1092 21.2007 12.8617C20.6427 12.7564 14.0309 12.7564 13.7887 12.8617ZM21.506 14.6415C22.1482 14.9574 22.5641 15.4419 22.7641 16.1001C22.8589 16.4055 22.8694 16.5951 22.8694 18.3907C22.8694 20.4759 22.8536 20.6181 22.5957 21.1289C22.4535 21.408 22.0061 21.8766 21.7218 22.0399C21.1901 22.3558 21.0375 22.3716 18.895 22.3716C17.0946 22.3716 16.9051 22.3611 16.5998 22.2663C15.9418 22.0662 15.4575 21.6502 15.1416 21.0078L14.9468 20.6128L14.9311 17.5166L14.9153 14.4151L18.0159 14.4309L21.1112 14.4467L21.506 14.6415Z" fill="#B3AEAE"/>
</svg>
