<svg width="18" height="18" viewBox="0 0 18 18" fill="none" xmlns="http://www.w3.org/2000/svg">
    <path d="M6.36328 0.00911713C3.13945 0.181494 0.942189 0.686867 0.281251 1.40771C1.39475e-06 1.71328 1.40625e-06 1.71328 1.40625e-06 3.17848C1.40625e-06 4.67893 -0.00351423 4.64758 0.341017 5.00409C0.580079 5.2509 1.03711 5.52121 1.51172 5.69751C1.72969 5.77978 1.81055 5.82679 1.80703 5.8738C1.80703 5.91298 1.80352 6.47711 1.8 7.13528L1.79297 8.32623L1.64531 8.36933C1.06524 8.5417 0.516798 8.82769 0.281251 9.08625C1.39475e-06 9.39183 1.40625e-06 9.39183 1.40625e-06 10.8609V12.1538L0.0914076 12.3575C0.189845 12.5808 0.383204 12.7767 0.710158 12.9921L0.917579 13.1292L0.914064 14.4965C0.914064 15.8011 0.914064 15.8716 0.984376 16.0322C1.29375 16.7413 2.75625 17.3524 5.00274 17.7089C6.44766 17.9401 7.70274 18.0224 9.41836 17.9949C13.4789 17.9323 16.6184 17.1056 17.0367 15.9852C17.0754 15.8833 17.0859 15.5778 17.0859 14.5318C17.0859 13.2742 17.0824 13.2037 17.0121 13.0431C16.9172 12.8237 16.6676 12.5847 16.3758 12.4319C16.193 12.3379 16.1438 12.2909 16.1648 12.2478C16.1789 12.2164 16.193 11.6601 16.2 11.0137C16.207 10.1518 16.2211 9.83452 16.2527 9.81101C16.2773 9.79534 16.3969 9.74441 16.5234 9.6974C17.1809 9.45451 17.7328 9.05099 17.9016 8.68666L18 8.47902V7.17837C18 5.68575 18 5.69751 17.6836 5.38018C17.448 5.14512 17.0402 4.92182 16.534 4.75728C16.2141 4.6515 16.1438 4.61624 16.1648 4.56923C16.207 4.46737 16.2176 2.10505 16.1719 1.87782C15.9891 0.945431 14.2242 0.361704 10.6875 0.0639648C10.1988 0.0208702 6.9082 -0.0183048 6.36328 0.00911713ZM10.9617 0.74563C13.4859 0.97677 15.2719 1.43513 15.5637 1.93267C15.6094 2.00711 15.6023 2.02669 15.5004 2.15989C15.1453 2.61042 13.4895 3.14322 11.6016 3.40961C10.4133 3.58199 9.93516 3.60941 8.10352 3.60941C6.26836 3.60941 5.82891 3.58591 4.60547 3.40961C3.13594 3.20198 1.74727 2.82197 1.0793 2.4498C0.857814 2.32443 0.597658 2.08154 0.597658 2.00319C0.597658 1.89741 0.889454 1.67411 1.21289 1.53699C2.26406 1.09038 3.73008 0.843573 6.3457 0.675114C6.94688 0.635937 10.3289 0.686867 10.9617 0.74563ZM1.24453 3.28033L1.49414 3.39003L1.50469 4.17747L1.51172 4.96883L1.42031 4.94532C1.2375 4.89439 0.861329 4.66325 0.731251 4.52614L0.597658 4.3851V3.66034V2.93166L0.798048 3.05311C0.907033 3.11971 1.11094 3.22157 1.24453 3.28033ZM15.6094 3.6721V4.37727L15.4969 4.4948C15.3809 4.60841 14.8078 4.96099 14.734 4.96099C14.7059 4.96099 14.6953 4.73377 14.7023 4.17355L14.7129 3.39003L14.959 3.28033C15.0961 3.22157 15.2859 3.12755 15.3809 3.06878C15.4793 3.01394 15.5672 2.96692 15.5848 2.96301C15.5988 2.96301 15.6094 3.28033 15.6094 3.6721ZM2.91094 3.80921C2.98828 3.82488 2.98828 3.8288 2.98828 4.628C2.98828 5.24306 2.97774 5.43111 2.94609 5.43111C2.92149 5.43111 2.7211 5.3841 2.50664 5.32533L2.10938 5.21956V4.40861V3.60158L2.47149 3.6956C2.66836 3.74653 2.86524 3.79746 2.91094 3.80921ZM14.073 5.19997C14.0379 5.23523 13.3383 5.43111 13.2504 5.43111C13.1871 5.43111 13.1836 5.3841 13.1836 4.63191V3.83272L13.4578 3.76612C13.6055 3.73086 13.8094 3.67993 13.9043 3.65251L14.0801 3.6055L14.0906 4.38902C14.0941 4.81996 14.0871 5.1843 14.073 5.19997ZM4.14844 4.03252L4.48242 4.08345L4.49297 4.91398L4.5 5.74844L4.3875 5.72885C4.32422 5.7171 4.16953 5.68967 4.04297 5.66617C3.91641 5.64266 3.76172 5.61524 3.70195 5.60349L3.58594 5.5839V4.7612V3.93849L3.70195 3.962C3.76172 3.97375 3.96563 4.00509 4.14844 4.03252ZM12.5859 4.7612C12.5859 5.70534 12.6422 5.58781 12.1465 5.66617C11.9918 5.68967 11.8301 5.7171 11.7844 5.72885L11.707 5.74452L11.7141 4.91398L11.7246 4.07953L12.1289 4.01685C12.3504 3.98159 12.5438 3.95025 12.5613 3.94633C12.5754 3.94633 12.5859 4.31067 12.5859 4.7612ZM5.98711 4.24407C6.00117 4.2519 6.01172 4.63191 6.01172 5.08636V5.91298L5.81133 5.88947C5.69883 5.8738 5.49141 5.85421 5.3543 5.83854L5.09766 5.81112V4.99234V4.16963L5.53008 4.19706C5.76563 4.21273 5.96953 4.23232 5.98711 4.24407ZM11.1094 4.99625V5.81112L10.909 5.83462C10.7965 5.8503 10.5891 5.86988 10.4484 5.88555L10.1953 5.91298L10.2023 5.07461L10.2129 4.23623L10.459 4.21273C10.5961 4.20098 10.7965 4.18922 10.909 4.1853L11.1094 4.17747V4.99625ZM7.79766 5.14512L7.80469 5.97958H7.44609C7.2457 5.97958 6.97852 5.96782 6.84844 5.95215L6.60938 5.92865V5.10986V4.295L7.2 4.30283L7.78711 4.31459L7.79766 5.14512ZM9.59766 5.11378V5.92865L9.3832 5.95607C9.26367 5.96782 8.99297 5.97958 8.78555 5.97958H8.40234V5.13729V4.295H9H9.59766V5.11378ZM16.3125 5.38018C17.0332 5.61915 17.4586 5.90514 17.3707 6.09319C17.1879 6.4732 15.8836 6.97465 14.3121 7.26848C11.6789 7.7621 8.49024 7.7856 5.80078 7.32724C4.36641 7.08435 3.09024 6.66516 2.61914 6.28907C2.475 6.17546 2.40469 6.06968 2.43985 6.03051C2.44688 6.02267 2.73516 6.07752 3.07969 6.15195C4.15547 6.38701 5.17852 6.52021 6.57422 6.61031C7.47774 6.66908 9.61524 6.63382 10.5117 6.55155C12.6633 6.34783 14.393 5.92865 15.3316 5.39193C15.7113 5.17255 15.6938 5.17255 16.3125 5.38018ZM2.61211 7.07259C2.71055 7.13528 2.91094 7.23713 3.05156 7.2959L3.30469 7.40559V8.20087V8.99615L3.1043 8.89429C2.80899 8.75325 2.59805 8.6083 2.48906 8.4751L2.39063 8.36149V7.66024C2.39063 7.27631 2.39766 6.95898 2.4082 6.95898C2.41875 6.95898 2.51016 7.00991 2.61211 7.07259ZM17.4023 7.67591V8.39283L17.2898 8.52603C17.1949 8.63181 16.5938 8.99615 16.5094 8.99615C16.4988 8.99615 16.4883 8.63964 16.4883 8.20087V7.40951L16.7449 7.29982C16.882 7.24105 17.0789 7.13919 17.1738 7.08043C17.2723 7.01775 17.3602 6.96682 17.3777 6.9629C17.3918 6.95898 17.4023 7.28023 17.4023 7.67591ZM4.39453 7.73467L4.79883 7.84437L4.80938 8.62397C4.81289 9.05099 4.80586 9.41533 4.7918 9.431C4.77422 9.44667 4.57031 9.4075 4.33477 9.3409L3.90234 9.22337V8.42417C3.90234 7.80911 3.91289 7.62498 3.94805 7.62498C3.96914 7.6289 4.17305 7.67591 4.39453 7.73467ZM15.8906 8.42809V9.22729L15.7605 9.26646C15.6094 9.30956 15.2543 9.4075 15.1102 9.44276L15.0117 9.46626V8.6514V7.83261L15.3211 7.7621C15.4898 7.72292 15.6586 7.67591 15.6973 7.66024C15.8941 7.57405 15.8906 7.55446 15.8906 8.42809ZM5.76914 8.01282C5.87461 8.03241 6.03281 8.05984 6.12774 8.07551L6.29297 8.09901V8.92171V9.74441L6.11016 9.72091C6.0082 9.70524 5.81484 9.6739 5.67774 9.65039L5.43164 9.60338L5.42109 8.78851L5.41406 7.97757H5.49492C5.54063 7.97757 5.66367 7.99324 5.76914 8.01282ZM14.407 8.78851L14.3965 9.60338L14.0273 9.66998C13.8234 9.70524 13.623 9.73658 13.5809 9.73658L13.5 9.7405V8.92171V8.10293L13.8094 8.05592C13.9781 8.03241 14.1328 8.00499 14.1504 7.99715C14.1715 7.98932 14.2383 7.98148 14.3016 7.98148L14.4141 7.97757L14.407 8.78851ZM7.58672 8.23613L7.80469 8.25963V9.08625V9.90895L7.39688 9.88153C7.17188 9.86586 6.96445 9.84235 6.93984 9.8306C6.90117 9.81493 6.89063 9.65039 6.89063 8.98831V8.16561L7.12969 8.18912C7.25977 8.20479 7.46367 8.22438 7.58672 8.23613ZM12.9023 8.99223C12.9023 9.94813 12.9691 9.83844 12.368 9.88153L11.9883 9.90895V9.08234V8.25963L12.2625 8.23221C12.4102 8.22046 12.5719 8.20479 12.6211 8.19695C12.6703 8.18912 12.7512 8.18128 12.8074 8.17736L12.9023 8.17345V8.99223ZM9.39727 8.33015H9.59766V9.15285V9.97555H9H8.40234V9.12543V8.27922L8.79961 8.30273C9.01406 8.3184 9.28477 8.33015 9.39727 8.33015ZM11.3906 9.13326V9.97555H10.793H10.1953V9.15285V8.33407L10.5398 8.3184C10.7262 8.31448 10.9969 8.30273 11.1375 8.29881L11.3906 8.29098V9.13326ZM2.26055 9.12935C2.71055 9.48193 3.29766 9.74441 4.19063 9.99123C7.01367 10.7708 11.1586 10.8805 14.4492 10.2655C14.7305 10.2145 14.9906 10.1597 15.0293 10.1518C15.068 10.1401 15.0434 10.1636 14.9766 10.2067C14.6145 10.4261 13.5105 10.7591 12.498 10.951C9.20742 11.5739 4.93594 11.4212 2.2043 10.5867C1.38867 10.336 0.738283 10.003 0.632814 9.77575C0.566017 9.64256 0.675001 9.52503 1.04414 9.32523C1.27266 9.19986 1.88438 8.96481 1.99688 8.96089C2.02149 8.95697 2.14102 9.03532 2.26055 9.12935ZM0.819142 10.7552C0.917579 10.8178 1.11797 10.9158 1.25859 10.9745L1.51172 11.0842V11.8638C1.51172 12.5416 1.50469 12.6395 1.45547 12.6395C1.35 12.6395 0.885939 12.3731 0.745314 12.2282L0.597658 12.0832V11.3624C0.597658 10.9667 0.604689 10.6416 0.615236 10.6416C0.625783 10.6416 0.717189 10.6925 0.819142 10.7552ZM15.6094 11.3506V12.0597L15.4969 12.1773C15.3668 12.3144 15.1734 12.4437 14.8992 12.5769L14.6953 12.6787V11.8795V11.0803L14.8992 10.9981C15.0082 10.951 15.2016 10.8492 15.3281 10.7787C15.4547 10.7042 15.5672 10.6455 15.5848 10.6416C15.5988 10.6416 15.6094 10.9589 15.6094 11.3506ZM2.38711 11.3624C2.49609 11.3937 2.67539 11.4407 2.78789 11.4643L2.98828 11.5073V12.33C2.98828 13.0979 2.98477 13.1527 2.92852 13.1332C2.89336 13.1214 2.69649 13.0666 2.48906 13.0078L2.10938 12.9059V12.1067C2.10938 11.5504 2.11992 11.3075 2.14805 11.3075C2.16914 11.3075 2.27813 11.3311 2.38711 11.3624ZM14.0977 12.1067V12.9059L13.6688 13.0235C13.4297 13.0861 13.2258 13.1332 13.2117 13.1214C13.1941 13.1136 13.1836 12.7532 13.1836 12.3222C13.1836 11.6876 13.1941 11.5348 13.2328 11.5191C13.3066 11.4878 13.9641 11.3193 14.0379 11.3115C14.0941 11.3075 14.0977 11.3702 14.0977 12.1067ZM4.47539 11.7737C4.48945 11.7777 4.5 12.1459 4.5 12.6004C4.5 13.0509 4.48945 13.4231 4.47539 13.4231C4.42617 13.4231 3.74414 13.3055 3.6668 13.2859C3.58594 13.2664 3.58594 13.2624 3.58594 12.4672C3.58594 12.0323 3.59297 11.6641 3.60352 11.6562C3.61055 11.6445 3.80391 11.668 4.03242 11.7071C4.26094 11.7424 4.45781 11.7737 4.47539 11.7737ZM12.5719 13.2507C12.5648 13.2742 12.4172 13.3134 12.2449 13.3408C12.0762 13.3643 11.8828 13.3956 11.823 13.4074L11.707 13.4309V12.6043C11.707 11.9696 11.7176 11.7777 11.7527 11.7737C11.7738 11.7698 11.9707 11.7424 12.1816 11.7032L12.5684 11.6405L12.5789 12.4241C12.5824 12.855 12.5824 13.2233 12.5719 13.2507ZM5.84649 11.9187L6.01172 11.9422V12.7649V13.5915L5.65313 13.5641C5.45273 13.5484 5.24883 13.5288 5.19609 13.5171L5.09766 13.4936V12.6709V11.8482L5.38945 11.8717C5.54766 11.8874 5.75156 11.9069 5.84649 11.9187ZM11.1094 12.6748V13.4936L10.9969 13.5132C10.9336 13.5288 10.7262 13.5484 10.5398 13.5641L10.1953 13.5915V12.7649V11.9383L10.3816 11.9187C10.6137 11.8874 10.807 11.8717 10.9793 11.8638L11.1094 11.856V12.6748ZM7.42852 12.001L7.80469 12.0245V12.8433V13.6581H7.26328C6.96445 13.6581 6.69727 13.6464 6.66563 13.6346C6.61641 13.615 6.60938 13.5014 6.60938 12.7923V11.9735H6.83086C6.95391 11.9735 7.22461 11.9853 7.42852 12.001ZM9.59766 12.7923C9.59766 13.5014 9.59063 13.615 9.54141 13.6346C9.50977 13.6464 9.24258 13.6581 8.94375 13.6581H8.40234V12.8354V12.0166L8.64141 12.001C8.77149 11.9931 9.03867 11.9853 9.23906 11.9814L9.59766 11.9735V12.7923ZM16.084 13.0117C16.2211 13.0822 16.3687 13.188 16.4145 13.2429C16.4883 13.329 16.4953 13.3565 16.4602 13.4387C16.2738 13.8932 14.5266 14.4887 12.5508 14.7707C10.5398 15.0606 8.04375 15.0802 5.92383 14.8295C4.47188 14.6571 3.00235 14.3006 2.17969 13.9167C1.89141 13.7796 1.55039 13.5328 1.52227 13.4348C1.51524 13.4113 1.63828 13.4387 1.82813 13.5014C2.65078 13.7913 4.09219 14.0773 5.36133 14.2066C6.63399 14.332 8.6625 14.3672 9.86133 14.2849C11.7598 14.1517 13.4719 13.8422 14.6074 13.4191C14.9379 13.2938 15.5074 13.0078 15.627 12.902C15.7078 12.8276 15.757 12.8393 16.084 13.0117ZM1.67344 14.4064C1.74024 14.4495 1.92305 14.5474 2.08477 14.6179L2.37305 14.7511L2.38359 15.5582L2.39063 16.3613L2.19024 16.2594C1.91953 16.1301 1.69102 15.9774 1.59258 15.8677C1.51524 15.7815 1.51172 15.7541 1.51172 15.0489C1.51172 14.6493 1.52227 14.3241 1.53281 14.3241C1.54688 14.3241 1.61016 14.3594 1.67344 14.4064ZM16.4883 15.0489C16.4883 15.7541 16.4848 15.7815 16.4074 15.8677C16.309 15.9774 16.0805 16.1301 15.8098 16.2594L15.6094 16.3613L15.6164 15.5582L15.627 14.7511L15.9187 14.6179C16.0805 14.5474 16.2598 14.4495 16.323 14.4064C16.3863 14.3672 16.4461 14.328 16.4637 14.328C16.4777 14.3241 16.4883 14.6493 16.4883 15.0489ZM3.48047 15.092C3.70195 15.1468 3.88828 15.1977 3.89531 15.2017C3.89883 15.2095 3.89883 15.5778 3.89531 16.0165L3.88477 16.8236L3.44531 16.6982L3.00586 16.5768L2.99531 15.7815C2.98828 15.1586 2.99531 14.9901 3.03047 14.9901C3.05508 14.9901 3.25899 15.0371 3.48047 15.092ZM15.0047 15.7815L14.9941 16.5768L14.5547 16.6982L14.1152 16.8236L14.1047 16.0165C14.1012 15.5778 14.1012 15.2095 14.1082 15.2017C14.1258 15.1821 14.85 14.9979 14.9344 14.994L15.0117 14.9901L15.0047 15.7815ZM4.93945 15.3819C5.09414 15.4054 5.26289 15.4328 5.31914 15.4446L5.41406 15.4681V16.2868C5.41406 16.7374 5.40352 17.1056 5.39297 17.1056C5.35781 17.1056 4.66524 16.9881 4.58086 16.9646C4.5 16.9489 4.5 16.945 4.5 16.1262V15.3035L4.58086 15.3192C4.62305 15.3309 4.78477 15.3584 4.93945 15.3819ZM13.5 16.1262C13.5 16.945 13.5 16.9489 13.4227 16.9685C13.3488 16.9881 12.6422 17.1056 12.6035 17.1056C12.5754 17.1056 12.5824 15.4602 12.6141 15.4563C12.6387 15.4524 13.4262 15.3192 13.4754 15.3074C13.4895 15.3074 13.5 15.6718 13.5 16.1262ZM6.7957 15.6013L6.89063 15.6248V16.4475V17.2741L6.60234 17.2467C6.44063 17.231 6.24375 17.2114 6.16289 17.1997L6.01172 17.1761V16.3534V15.5307L6.35625 15.5582C6.54258 15.5699 6.73945 15.5934 6.7957 15.6013ZM11.9883 16.3574V17.1761L11.8406 17.1997C11.7563 17.2114 11.5594 17.231 11.4012 17.2467L11.1094 17.2741V16.4475V15.6209L11.2254 15.5973C11.3379 15.5778 11.5559 15.5582 11.8406 15.5464L11.9883 15.5386V16.3574ZM8.46914 15.6796L8.68359 15.707V16.5219V17.3407H8.24766C8.00859 17.3407 7.74141 17.3289 7.65 17.3172L7.48828 17.2898V16.4749V15.6561H7.87149C8.07891 15.6561 8.34961 15.6679 8.46914 15.6796ZM10.5117 16.4749V17.2898L10.35 17.3172C10.2586 17.3289 9.99141 17.3407 9.75234 17.3407H9.31641V16.5219V15.6992L9.46758 15.6835C9.54844 15.6757 9.81563 15.6679 10.0652 15.6639L10.5117 15.6561V16.4749Z" fill="#D7A53F"/>
</svg>
