<svg width="24" height="24" viewBox="0 0 24 24" fill="none" xmlns="http://www.w3.org/2000/svg">
    <path d="M8.32118 0.0463028C7.63774 0.163483 6.94896 0.632196 6.66063 1.17591C6.46308 1.54619 6.39366 1.86023 6.39366 2.38988V2.80704H4.31665C3.13131 2.80704 2.12217 2.82578 1.95665 2.85391C0.958189 3.02265 0.19466 3.71634 0.0291392 4.61628C-0.131042 5.46465 0.381537 6.35521 1.26253 6.76299L1.63095 6.93173L1.66299 7.20359C1.68434 7.34889 2.01004 10.7799 2.38914 14.8296C2.77357 18.8746 3.10461 22.2681 3.13131 22.3665C3.32353 23.093 4.07638 23.7492 4.92 23.9227C5.40588 24.0258 18.5941 24.0258 19.08 23.9227C19.9236 23.7492 20.6765 23.093 20.8687 22.3665C20.8954 22.2681 21.2264 18.8746 21.6109 14.8296C21.99 10.7799 22.3157 7.34889 22.337 7.20359L22.3691 6.93173L22.7375 6.76299C23.6185 6.35521 24.131 5.46465 23.9709 4.61628C23.8053 3.71634 23.0418 3.02265 22.0433 2.85391C21.8778 2.82578 20.8687 2.80704 19.6833 2.80704H17.6063V2.38988C17.6063 2.1649 17.5796 1.86492 17.5529 1.7243C17.3714 0.880617 16.5972 0.200979 15.6361 0.0416164C15.2837 -0.0146294 8.6629 -0.0146294 8.32118 0.0463028ZM15.5774 1.49463C15.8977 1.63993 16.0045 1.86023 16.0045 2.38519V2.80704H12H7.99547V2.38519C7.99547 1.86961 8.10226 1.63993 8.41195 1.49932C8.60416 1.41026 8.73231 1.40558 11.9893 1.40089C15.273 1.40089 15.3745 1.40558 15.5774 1.49463ZM21.9846 4.30692C22.2249 4.41473 22.4118 4.6819 22.4118 4.91626C22.4118 5.15061 22.2249 5.41778 21.9846 5.52559C21.7764 5.61933 21.691 5.61933 12 5.61933C2.30905 5.61933 2.22362 5.61933 2.01538 5.52559C1.77511 5.41778 1.58823 5.15061 1.58823 4.91626C1.58823 4.69127 1.77511 4.41473 2.0047 4.31161C2.19692 4.21787 2.35176 4.21787 11.9893 4.21318C21.6963 4.21318 21.7764 4.21318 21.9846 4.30692ZM20.7245 7.22234C20.7138 7.33483 20.3881 10.7236 20.0091 14.7499C19.2615 22.6899 19.3203 22.24 18.9786 22.465L18.8291 22.5634H12H5.17095L5.02145 22.465C4.67973 22.24 4.73846 22.6899 3.99095 14.7499C3.61185 10.7236 3.28615 7.33483 3.27547 7.22234L3.24344 7.02547H12H20.7566L20.7245 7.22234Z" fill="white"/>
    <path d="M6.80462 8.53004C6.67114 8.59097 6.56435 8.6894 6.49494 8.82064L6.38281 9.02219L6.7886 14.8061C7.24245 21.2791 7.1944 20.8947 7.61621 21.0869C7.88851 21.2041 8.10209 21.2041 8.3744 21.0869C8.51856 21.0213 8.62001 20.9276 8.69476 20.7916L8.80689 20.5901L8.40109 14.8061C7.94725 8.33318 7.9953 8.71752 7.57349 8.52535C7.30652 8.40817 7.06625 8.40817 6.80462 8.53004Z" fill="white"/>
    <path d="M11.6157 8.53004C11.4929 8.58628 11.3701 8.69409 11.306 8.80658C11.1992 8.98938 11.1992 9.07375 11.1992 14.8061C11.1992 20.5432 11.1992 20.6229 11.306 20.8057C11.4288 21.0166 11.7332 21.1807 12.0001 21.1807C12.2671 21.1807 12.5714 21.0166 12.6942 20.8057C12.801 20.6229 12.801 20.5432 12.801 14.8061C12.801 9.06906 12.801 8.98938 12.6942 8.80658C12.4967 8.46442 12.0161 8.34255 11.6157 8.53004Z" fill="white"/>
    <path d="M16.4161 8.53004C16.0049 8.72221 16.053 8.35661 15.5992 14.8061L15.1934 20.5901L15.3055 20.7916C15.3802 20.9276 15.4817 21.0213 15.6258 21.0869C15.8982 21.2041 16.1117 21.2041 16.384 21.0869C16.8058 20.8947 16.7578 21.2791 17.2116 14.8061L17.6174 9.02219L17.5053 8.82064C17.3077 8.4691 16.8272 8.33786 16.4161 8.53004Z" fill="white"/>
</svg>
