<svg width="25" height="24" viewBox="0 0 25 24" fill="none" xmlns="http://www.w3.org/2000/svg">
    <path d="M11.3591 0.0301056C7.6042 0.419954 4.31399 2.46314 2.31451 5.64769C0.0287266 9.28315 -0.107388 13.9942 1.96249 17.7565C2.88244 19.4333 4.25297 20.9316 5.82063 21.9838C7.3883 23.0312 9.05922 23.6606 11.0305 23.9424C11.5891 24.0223 13.4337 24.0176 14.011 23.9377C16.9304 23.5338 19.4039 22.2421 21.3893 20.0862C23.0274 18.3107 24.0741 16.0374 24.4402 13.4822C24.5199 12.928 24.5199 11.0774 24.4402 10.5232C24.0506 7.78481 22.9335 5.48329 21.0842 3.59981C19.188 1.66935 16.8647 0.490408 14.1752 0.0911655C13.5979 0.00662041 11.9317 -0.0309563 11.3591 0.0301056ZM14.2222 0.6595C17.9442 1.23723 21.1499 3.59511 22.788 6.95345C23.3278 8.05724 23.6141 8.95906 23.83 10.2178C23.9192 10.7157 23.9332 10.9882 23.9332 12.0027C23.9332 13.3225 23.8769 13.811 23.5906 14.9289C22.9992 17.221 21.5489 19.4521 19.6902 20.9363C18.4323 21.9415 16.9116 22.7071 15.4331 23.0923C14.3301 23.3741 13.8232 23.4351 12.5325 23.4351C11.2793 23.4398 10.8756 23.3976 9.83366 23.1533C6.55283 22.3783 3.7179 20.105 2.23003 17.0519C1.83107 16.2394 1.61516 15.6476 1.40865 14.8491C1.13642 13.7875 1.08009 13.2944 1.08009 12.0027C1.08009 10.711 1.13642 10.2178 1.40865 9.15633C2.15024 6.2536 4.01829 3.74072 6.59508 2.18602C7.89051 1.40162 9.40655 0.856773 10.8193 0.664196C11.115 0.621923 11.4248 0.579651 11.4999 0.570257C11.8566 0.523287 13.734 0.579651 14.2222 0.6595Z" fill="#DADADA"/>
    <path d="M12.7675 5.89666C12.0916 5.9812 11.3406 6.50256 11.012 7.11787C10.7727 7.56408 10.7257 7.8412 10.7257 8.79469V9.65424H10.2611C9.83395 9.65424 9.78232 9.66363 9.66029 9.76696L9.52886 9.87969L9.51478 10.8708C9.49601 12.2141 9.51009 12.2376 10.308 12.2376H10.7257V15.0558V17.8786L10.8384 17.9914C10.9933 18.1464 11.1998 18.1652 12.3779 18.1464L13.4011 18.1323L13.5278 18.0008L13.6592 17.8739L13.6733 15.0558L13.6874 12.2376H14.3633C15.3489 12.2376 15.3067 12.2986 15.424 10.7392L15.485 9.92196L15.3349 9.79045L15.1847 9.65424H14.4337H13.6827V9.11878C13.6827 8.41423 13.6545 8.43302 14.5792 8.43302H15.2691L15.3912 8.28742L15.5132 8.14181V7.16014V6.17847L15.3771 6.02817L15.241 5.87317L14.1661 5.86378C13.5794 5.86378 12.9505 5.87787 12.7675 5.89666ZM14.95 7.16484V7.91635H14.2976C13.7015 7.91635 13.6358 7.92575 13.495 8.01969C13.157 8.25454 13.1429 8.29211 13.1289 9.30666L13.1148 10.2179H14.0159H14.9171L14.889 10.5091C14.8702 10.6735 14.8467 11.0023 14.8279 11.2371L14.7951 11.6739H13.9596H13.1195V14.633V17.5921H12.2042H11.289L11.2796 14.6424L11.2655 11.6974L10.6694 11.6833L10.0686 11.6692V10.9459V10.2226L10.6694 10.2085L11.2655 10.1944L11.289 8.97318L11.3124 7.75196L11.4485 7.47014C11.702 6.95817 12.1995 6.57302 12.7534 6.46499C12.866 6.4415 13.4058 6.42272 13.9549 6.41802L14.95 6.41332V7.16484Z" fill="#DADADA"/>
</svg>
