<svg width="24" height="24" viewBox="0 0 24 24" fill="none" xmlns="http://www.w3.org/2000/svg">
    <path d="M5.6369 0.0489693C4.76391 0.139406 3.81113 0.521257 2.99915 1.09906C2.49225 1.46081 1.6615 2.36519 1.29541 2.95304C0.73688 3.85742 0.333239 4.92258 0.107951 6.1234C0.0140805 6.63589 0 6.84691 0 7.93217C0 9.30381 0.0469351 9.68566 0.333239 10.7709C0.868298 12.7656 1.8774 14.6598 3.5389 16.8001C4.21007 17.6593 5.95136 19.5484 6.85252 20.3875C8.17609 21.6235 10.3351 23.4473 10.7481 23.6684C11.4803 24.0704 12.3345 24.1106 13.0479 23.7689C13.522 23.5428 15.451 21.9501 16.9952 20.5131C17.9433 19.6288 19.5297 17.9356 20.2008 17.1016C22.4537 14.2829 23.6787 11.6753 23.965 9.06767C24.0354 8.43962 23.9932 6.84691 23.8946 6.28418C23.4253 3.59113 22.1393 1.63164 20.1821 0.61672C19.9005 0.471014 19.464 0.290136 19.2199 0.224821C18.1028 -0.091713 16.4742 -0.0716152 15.3431 0.270041C14.7939 0.435843 13.9773 0.867937 13.4891 1.25481C13.2732 1.42564 12.8461 1.83261 12.541 2.15919L11.9872 2.75709L11.4381 2.15919C11.1377 1.83261 10.7106 1.42564 10.4947 1.25481C10.0066 0.872961 9.18988 0.435843 8.64074 0.270041C7.81938 0.0188217 6.70702 -0.0615673 5.6369 0.0489693ZM7.62695 1.01867C8.48586 1.14428 9.29314 1.48091 9.93615 1.98837C10.3069 2.2848 10.8936 2.8827 11.3442 3.44543C11.9168 4.15386 12.067 4.15888 12.5974 3.49567C13.0292 2.94299 13.7285 2.22953 14.1087 1.93812C14.5217 1.62661 15.207 1.27993 15.6763 1.15432C16.6291 0.898083 18.0371 0.883009 18.9148 1.12418C20.6749 1.60149 22.0876 3.12889 22.7353 5.25921C23.031 6.22389 23.092 6.68613 23.092 7.98241C23.092 8.97723 23.078 9.18323 22.9794 9.69069C22.5664 11.8361 21.5385 13.9111 19.7456 16.2223C19.1448 16.9961 17.1125 19.1616 16.2395 19.9604C14.7282 21.3472 12.9963 22.7741 12.649 22.9248C12.3017 23.0705 11.8699 23.0856 11.485 22.96C11.2081 22.8695 11.0391 22.759 10.4571 22.2917C8.72053 20.8899 7.33595 19.6288 6.03585 18.2572C3.12587 15.1923 1.57232 12.5546 0.999717 9.69069C0.905847 9.22845 0.89646 9.01742 0.89646 7.95729C0.89646 6.61076 0.948088 6.20881 1.27194 5.17883C1.99474 2.85255 3.75011 1.20457 5.71669 1.00359C6.33623 0.938278 7.09658 0.943302 7.62695 1.01867Z" fill="#B3AEAE"/>
</svg>
