<svg width="18" height="18" viewBox="0 0 18 18" fill="none" xmlns="http://www.w3.org/2000/svg">
<path d="M8.30075 0.0320988C6.06257 0.23629 4.10065 1.44735 3.06364 3.25338C2.89147 3.55615 2.61921 4.24969 2.53913 4.60527C2.24284 5.88674 2.43503 7.19637 3.07966 8.35111C3.17575 8.52361 4.44499 10.298 5.89841 12.2941C7.86032 14.9873 8.57702 15.9449 8.67712 16.0012C8.8613 16.1104 9.14158 16.1104 9.32576 16.0012C9.42185 15.9449 10.1506 14.9767 12.0925 12.3152C13.5419 10.3296 14.8151 8.54826 14.9232 8.35463C15.676 7.00627 15.8081 5.44315 15.2836 4.03142C14.9472 3.12664 14.4227 2.37325 13.662 1.70435C12.2406 0.454562 10.2987 -0.150969 8.30075 0.0320988ZM9.74216 3.24282C10.8192 3.50686 11.656 4.25673 11.9283 5.20376C11.9603 5.31289 11.9844 5.57341 11.9844 5.80225C11.9844 6.23527 11.9363 6.4641 11.7721 6.8056C11.3998 7.57659 10.611 8.16804 9.6821 8.37575C9.39783 8.43912 8.60505 8.43912 8.32077 8.37575C7.39187 8.16804 6.6031 7.57659 6.23073 6.8056C6.06657 6.4641 6.01853 6.23527 6.01853 5.80225C6.01853 5.36922 6.06657 5.14039 6.23073 4.79889C6.6031 4.02438 7.45193 3.39068 8.32077 3.23578C8.44089 3.21466 8.57702 3.19001 8.62107 3.18297C8.76921 3.15129 9.53796 3.19353 9.74216 3.24282Z" fill="#493421"/>
<path d="M3.73231 12.2624C0.817467 12.9771 -0.519839 14.2093 0.184849 15.5295C0.312974 15.7759 0.681334 16.142 1.03368 16.3814C2.19882 17.1665 4.39696 17.7333 7.13964 17.9551C7.87235 18.015 10.1306 18.015 10.8633 17.9551C13.606 17.7333 15.8041 17.1665 16.9692 16.3814C17.3216 16.142 17.6899 15.7759 17.8181 15.5295C18.5268 14.1987 17.1334 12.9384 14.1905 12.2448C13.7981 12.1533 13.706 12.1427 13.666 12.1814C13.638 12.2061 12.9653 13.1285 12.1645 14.2339C11.3638 15.3394 10.6391 16.3181 10.555 16.4166C9.77822 17.3003 8.18466 17.2968 7.43593 16.4096C7.35585 16.3181 6.61913 15.3182 5.79833 14.1881C4.98153 13.0616 4.28886 12.1392 4.26083 12.1427C4.2368 12.1427 3.99657 12.199 3.73231 12.2624Z" fill="#493421"/>
</svg>
