<svg width="25" height="24" viewBox="0 0 25 24" fill="none" xmlns="http://www.w3.org/2000/svg">
    <path d="M11.6818 0.0695496C11.2502 0.172588 10.7295 0.409575 10.3683 0.672319C10.0258 0.919609 1.64278 8.61136 1.20651 9.07502C0.887509 9.41505 0.610733 10.023 0.530984 10.5433C0.319883 11.9343 1.2112 13.3305 2.48249 13.5932L2.79211 13.655V17.6323C2.79211 22.0114 2.79211 21.965 3.08765 22.5781C3.28467 22.9954 3.73033 23.4848 4.09624 23.6857C4.66386 24 4.64979 24 7.72717 24H10.5278L10.5418 20.4091L10.5559 16.8131L10.706 16.4628C11.0813 15.5921 11.9304 15.0821 12.7748 15.2264C13.5723 15.3603 14.2009 15.9734 14.3979 16.8131C14.4636 17.0759 14.473 17.6168 14.473 20.5585V24H17.3018C20.3697 24 20.3604 24 20.8952 23.7063C21.2892 23.49 21.7442 22.9696 21.946 22.506C22.0351 22.2947 22.1336 21.9805 22.1618 21.8156C22.1946 21.6147 22.2134 20.1619 22.2134 17.5859V13.6653L22.5089 13.6035C23.1375 13.4747 23.8412 12.9389 24.1508 12.3516C24.7231 11.2749 24.5824 9.98175 23.799 9.09048C23.4096 8.64742 15.0641 0.97628 14.6372 0.672319C14.2572 0.399269 13.7693 0.17774 13.3002 0.0695496C12.8968 -0.0231838 12.0665 -0.0231838 11.6818 0.0695496ZM13.441 1.1669C13.6098 1.22872 13.8772 1.36267 14.0367 1.47086C14.4355 1.7336 23.1328 9.75507 23.3017 10.0075C23.7145 10.6309 23.6254 11.5788 23.1047 12.1507C22.7857 12.501 22.5699 12.5834 21.8756 12.6041L21.2751 12.6247L21.2658 17.1686L21.2517 21.7074L21.0969 22.0526C20.9139 22.4596 20.6606 22.7172 20.3041 22.8666C20.0648 22.9645 19.9382 22.9696 17.7333 22.9696H15.4159L15.3972 19.8424C15.3831 16.4319 15.3925 16.5968 15.1063 15.9476C14.5997 14.8194 13.4644 14.0929 12.3245 14.1805C11.8507 14.2114 11.2643 14.4227 10.8937 14.6957C10.5231 14.9688 10.1056 15.484 9.90854 15.9219C9.58954 16.6122 9.59424 16.5813 9.59424 19.9403V22.9748L7.19238 22.9593L4.78583 22.9439L4.58411 22.8254C4.2745 22.6451 4.02587 22.372 3.88514 22.0526L3.75379 21.7589L3.73971 17.1892L3.73033 12.6247L3.12987 12.6041C2.43558 12.5834 2.21979 12.501 1.90079 12.1507C1.39415 11.5943 1.29564 10.7133 1.66624 10.0745C1.76006 9.90963 2.99851 8.74015 6.10873 5.88086C8.47775 3.70162 10.5325 1.81603 10.6732 1.69239C10.9687 1.43995 11.405 1.20811 11.7897 1.09992C12.1837 0.991735 13.0469 1.0278 13.441 1.1669Z" fill="#D7A53F"/>
</svg>
