<svg width="24" height="24" viewBox="0 0 24 24" fill="none" xmlns="http://www.w3.org/2000/svg">
<path d="M9.21097 0.0459051C9.13128 0.0737262 9.00941 0.168318 8.94378 0.251782C8.86878 0.346374 8.28753 1.85985 7.45316 4.13563C6.69847 6.18327 6.07034 7.90819 6.05628 7.96383C6.03753 8.05286 6.0844 8.05842 6.7969 8.0473L7.55628 8.0306L8.84066 4.53625C9.77347 2.00452 10.125 0.986263 10.125 0.836028C10.125 0.285168 9.66097 -0.115458 9.21097 0.0459051Z" fill="#493421"/>
<path d="M14.3859 0.0459051C14.0672 0.15719 13.875 0.463223 13.875 0.847157C13.875 0.986263 14.2688 2.11024 15.1594 4.53625L16.4438 8.0306L17.2031 8.0473C17.9156 8.05842 17.9625 8.05286 17.9438 7.96383C17.9297 7.90819 17.3016 6.18327 16.5469 4.13563C15.7219 1.88767 15.1313 0.346374 15.0563 0.251782C14.9906 0.168318 14.8594 0.0737262 14.7703 0.0459051C14.5781 -0.0153017 14.5547 -0.0153017 14.3859 0.0459051Z" fill="#493421"/>
<path d="M0.585938 8.21979C0.248438 8.40341 0 8.83742 0 9.23248C0 9.32707 0.6 12.5098 1.33594 16.3046C2.37656 21.702 2.69531 23.26 2.78906 23.4491C2.86406 23.5994 2.99063 23.7496 3.13125 23.8442L3.35156 24H12H20.6484L20.8688 23.8442C21.0094 23.7496 21.1359 23.5994 21.2109 23.4491C21.3047 23.26 21.6234 21.702 22.6641 16.3046C23.4 12.5098 24 9.32707 24 9.23248C24 8.83742 23.7516 8.40341 23.4141 8.21979C23.2406 8.12519 23.0578 8.11407 20.6156 8.11407H18.0094L18.2859 8.86524C18.5859 9.68318 18.6188 9.91132 18.4734 10.2285C18.3516 10.5067 18.0234 10.6959 17.7656 10.6458C17.4188 10.579 17.3109 10.401 16.875 9.20466L16.4766 8.11407H12H7.52344L7.125 9.20466C6.68906 10.401 6.58125 10.579 6.23438 10.6458C5.97656 10.6959 5.64844 10.5067 5.52656 10.2285C5.38125 9.91132 5.41406 9.68318 5.71406 8.86524L5.99063 8.11407H3.38438C0.942188 8.11407 0.759375 8.12519 0.585938 8.21979ZM8.16094 12.7491C8.49844 13.0162 8.48906 12.8771 8.475 16.555C8.46094 19.7823 8.46094 19.8491 8.3625 19.9993C8.18906 20.2775 8.03438 20.3777 7.78125 20.3777C7.52813 20.3777 7.37344 20.2775 7.2 19.9993C7.10156 19.8491 7.10156 19.7823 7.0875 16.555C7.07813 13.5058 7.08281 13.2443 7.15781 13.0662C7.27969 12.788 7.51406 12.6211 7.78125 12.6211C7.93125 12.6211 8.05313 12.6601 8.16094 12.7491ZM12.3797 12.7491C12.7172 13.0162 12.7078 12.8771 12.6938 16.555C12.6797 19.7823 12.6797 19.8491 12.5813 19.9993C12.4078 20.2775 12.2531 20.3777 12 20.3777C11.7469 20.3777 11.5922 20.2775 11.4188 19.9993C11.3203 19.8491 11.3203 19.7823 11.3063 16.555C11.2969 13.5058 11.3016 13.2443 11.3766 13.0662C11.4984 12.788 11.7328 12.6211 12 12.6211C12.15 12.6211 12.2719 12.6601 12.3797 12.7491ZM16.5984 12.7491C16.9359 13.0162 16.9266 12.8771 16.9125 16.555C16.8984 19.7823 16.8984 19.8491 16.8 19.9993C16.6266 20.2775 16.4719 20.3777 16.2188 20.3777C15.9656 20.3777 15.8109 20.2775 15.6375 19.9993C15.5391 19.8491 15.5391 19.7823 15.525 16.555C15.5156 13.5058 15.5203 13.2443 15.5953 13.0662C15.7172 12.788 15.9516 12.6211 16.2188 12.6211C16.3688 12.6211 16.4906 12.6601 16.5984 12.7491Z" fill="#493421"/>
</svg>
