<svg width="25" height="24" viewBox="0 0 25 24" fill="none" xmlns="http://www.w3.org/2000/svg">
    <path d="M11.3667 0.0483475C9.08541 0.250175 6.72431 1.21707 4.90771 2.69556C4.37259 3.12738 3.52766 3.98162 3.1052 4.512C2.03026 5.85908 1.14778 7.68021 0.781643 9.3136C0.551635 10.3368 0.5 10.839 0.5 12.0124C0.5 13.1859 0.551635 13.6881 0.781643 14.7113C1.15247 16.3775 2.05842 18.2268 3.17091 19.5927C3.60277 20.1277 4.45708 20.9726 4.98751 21.395C6.3347 22.4699 8.15599 23.3523 9.78952 23.7184C10.8128 23.9484 11.3151 24 12.4886 24C13.6621 24 14.1644 23.9484 15.1877 23.7184C16.4128 23.4462 18.0182 22.7609 19.0743 22.0615C20.9003 20.8459 22.3039 19.25 23.2661 17.2928C24.0406 15.711 24.4209 14.2044 24.4913 12.4443C24.5992 9.63746 23.7027 6.89168 21.933 4.59649C21.5387 4.08488 20.4168 2.9631 19.9052 2.56883C17.4267 0.658522 14.4413 -0.223883 11.3667 0.0483475ZM14.0846 0.911978C14.7089 1.00585 15.6007 1.22176 16.2157 1.43297C17.2202 1.7803 18.5674 2.5219 19.4546 3.22594C19.8817 3.55919 20.9426 4.61996 21.2759 5.04708C21.98 5.93417 22.7216 7.28125 23.069 8.28569C23.5055 9.56705 23.6792 10.6184 23.6792 12.0124C23.6792 13.153 23.6088 13.7444 23.3553 14.7582C22.3555 18.7197 19.1964 21.8785 15.2346 22.8782C14.2207 23.1317 13.6293 23.2021 12.4886 23.2021C11.0945 23.2021 10.043 23.0284 8.76152 22.5919C7.757 22.2446 6.40981 21.503 5.52263 20.7989C5.09547 20.4657 4.03462 19.4049 3.70134 18.9778C2.99723 18.0907 2.25557 16.7436 1.90821 15.7392C1.69698 15.1149 1.48106 14.2325 1.37779 13.5613C1.26513 12.8151 1.26513 11.2098 1.37779 10.4635C1.56085 9.24789 1.88944 8.18712 2.41517 7.10758C3.00662 5.90132 3.59338 5.07993 4.57443 4.09896C5.26446 3.41369 5.6259 3.1133 6.34878 2.63454C7.8368 1.65357 9.59706 1.03401 11.4324 0.846268C12.0098 0.78525 13.4837 0.8228 14.0846 0.911978Z" fill="#DADADA"/>
    <path d="M7.02021 4.83127C6.37712 4.93923 5.91711 5.23493 5.58383 5.76062C5.26463 6.26284 5.28341 5.90612 5.28341 12.0125C5.28341 17.1662 5.28811 17.5463 5.3679 17.7904C5.56975 18.4288 6.07201 18.931 6.7104 19.1328C6.95449 19.2126 7.33471 19.2173 12.4888 19.2173C17.6428 19.2173 18.0231 19.2126 18.2671 19.1328C18.9055 18.931 19.4078 18.4288 19.6096 17.7904C19.6894 17.5463 19.6941 17.1662 19.6941 12.0125C19.6941 6.85893 19.6894 6.47874 19.6096 6.23467C19.4078 5.60103 18.9337 5.11759 18.2812 4.89229C18.07 4.81719 17.6241 4.8125 12.6531 4.80311C9.68643 4.79842 7.15164 4.8125 7.02021 4.83127ZM18.1686 5.70429C18.4267 5.82633 18.7459 6.15957 18.8304 6.40834C18.929 6.68057 18.929 17.3445 18.8304 17.6168C18.7366 17.8796 18.3939 18.2316 18.131 18.3349C17.9245 18.4147 17.5959 18.4194 12.4888 18.4194C7.38165 18.4194 7.05307 18.4147 6.84653 18.3349C6.58366 18.2316 6.241 17.8796 6.14712 17.6168C6.04854 17.3445 6.04854 6.68057 6.14712 6.40834C6.22222 6.19712 6.52733 5.84041 6.73387 5.73715C6.80898 5.6996 6.96857 5.64797 7.08593 5.62919C7.20328 5.61042 9.70051 5.59634 12.6296 5.60103C17.9339 5.60573 17.9573 5.60573 18.1686 5.70429Z" fill="#DADADA"/>
    <path d="M16.4077 6.51633C15.9805 6.70877 15.7083 7.14058 15.713 7.62403C15.7176 8.28583 16.2152 8.78336 16.8771 8.78805C17.5483 8.79275 18.0694 8.29522 18.0741 7.6475C18.0741 7.23915 17.999 7.05141 17.7267 6.77448C17.5671 6.61959 17.4122 6.51164 17.2948 6.47878C17.0179 6.40368 16.6189 6.41776 16.4077 6.51633ZM17.1681 7.32833C17.3793 7.52546 17.2761 7.88687 16.985 7.99013C16.8348 8.04176 16.6142 7.92442 16.5438 7.76015C16.3842 7.37527 16.863 7.04202 17.1681 7.32833Z" fill="#DADADA"/>
    <path d="M11.8552 8.05096C11.6252 8.0885 11.0807 8.25748 10.8179 8.37482C10.0246 8.72684 9.2031 9.54823 8.85574 10.3368C8.57879 10.9516 8.52246 11.2379 8.52246 12.0124C8.52246 12.7868 8.57879 13.0732 8.85574 13.688C9.2031 14.4766 10.0246 15.2979 10.8179 15.65C11.4281 15.9222 11.7144 15.9785 12.4889 15.9785C13.2634 15.9785 13.5498 15.9222 14.16 15.65C14.9533 15.2979 15.7748 14.4766 16.1221 13.688C16.3991 13.0685 16.4554 12.7868 16.4507 12.0124C16.4507 11.4398 16.4319 11.2239 16.3662 11.0033C16.0517 9.97535 15.4837 9.19151 14.667 8.66582C13.9863 8.22462 13.4653 8.06973 12.6298 8.04626C12.2824 8.03687 11.935 8.04157 11.8552 8.05096ZM13.2494 8.90989C14.6998 9.28069 15.6809 10.5339 15.6809 12.0124C15.6809 13.7678 14.2445 15.2041 12.4889 15.2041C10.1184 15.2041 8.58818 12.7258 9.63026 10.5855C10.2733 9.26661 11.8271 8.54848 13.2494 8.90989Z" fill="#DADADA"/>
</svg>
