<svg width="24" height="24" viewBox="0 0 24 24" fill="none" xmlns="http://www.w3.org/2000/svg">
    <path d="M11.696 0.0591836C11.5129 0.143663 11.3673 0.284462 11.264 0.476888C11.1888 0.612994 11.1794 0.781954 11.1794 2.06792V3.50408L11.3203 3.70589C11.4941 3.94994 11.7242 4.07666 12.0013 4.07666C12.2783 4.07666 12.5085 3.94994 12.6822 3.70589L12.8231 3.50408V2.06792C12.8231 0.650541 12.8231 0.622381 12.7151 0.439342C12.5085 0.0732632 12.0341 -0.100389 11.696 0.0591836Z" fill="#493421"/>
    <path d="M3.69855 3.37748C3.25241 3.59806 3.12092 4.10964 3.39799 4.5555C3.44965 4.63998 3.91457 5.12339 4.42645 5.63027C5.11679 6.3108 5.40325 6.56424 5.53475 6.60648C6.17343 6.81768 6.78862 6.17469 6.55381 5.54579C6.47868 5.35336 4.60021 3.47604 4.3701 3.36809C4.1259 3.25545 3.94744 3.25545 3.69855 3.37748Z" fill="#493421"/>
    <path d="M19.6325 3.36818C19.4024 3.47612 17.5239 5.35814 17.4488 5.54587C17.3361 5.85094 17.4253 6.20763 17.6648 6.43291C17.8996 6.65349 18.1156 6.70043 18.4584 6.60656C18.604 6.56432 18.8294 6.3719 19.5761 5.63035C20.088 5.12347 20.5623 4.62129 20.6281 4.51334C21.0272 3.83751 20.3275 3.03026 19.6325 3.36818Z" fill="#493421"/>
    <path d="M11.4377 6.00105C8.5683 6.25918 6.26248 8.58707 5.99011 11.5016C5.79756 13.6277 6.8495 15.8101 8.65283 17.0116C11.2028 18.7059 14.5794 18.2553 16.5377 15.9603C17.4112 14.9371 17.8902 13.8154 18.0076 12.5154C18.3128 9.23475 15.838 6.31081 12.4943 6.00105C12.2125 5.97759 11.9448 5.95881 11.9073 5.95881C11.8697 5.96351 11.6584 5.98228 11.4377 6.00105ZM13.2363 7.80328C14.7203 8.24915 15.7534 9.27699 16.2137 10.7742C16.3311 11.1543 16.3404 11.2482 16.3404 12.0085C16.3404 12.7688 16.3311 12.8627 16.2137 13.2428C15.9741 14.0219 15.5844 14.6696 15.049 15.1812C14.5324 15.6693 13.9689 15.9931 13.2363 16.2184C12.8559 16.3357 12.762 16.3451 12.0012 16.3451C11.2404 16.3451 11.1465 16.3357 10.7661 16.2184C9.26803 15.7585 8.24896 14.74 7.78874 13.2428C7.67133 12.8627 7.66194 12.7688 7.66194 12.0085C7.66194 11.2482 7.67133 11.1543 7.78874 10.7742C8.28653 9.15496 9.44648 8.08958 11.1136 7.71411C11.3249 7.66718 11.6208 7.64841 12.1186 7.66249C12.715 7.67657 12.8888 7.70003 13.2363 7.80328Z" fill="#493421"/>
    <path d="M0.655375 11.2062C0.57554 11.225 0.448744 11.2813 0.373605 11.3235C-0.152365 11.6333 -0.114796 12.4687 0.434655 12.7409C0.599021 12.8207 0.730514 12.8301 2.05483 12.8301H3.49186L3.69379 12.6893C3.93799 12.5156 4.06479 12.2857 4.06479 12.0087C4.06479 11.7318 3.93799 11.5019 3.69379 11.3282L3.49186 11.1874L2.14875 11.178C1.40676 11.1733 0.73521 11.1874 0.655375 11.2062Z" fill="#493421"/>
    <path d="M20.5623 11.2062C20.2007 11.2954 19.9377 11.638 19.9377 12.0181C19.9377 12.2857 20.0645 12.5156 20.3087 12.6893L20.5107 12.8301H21.9477C23.3659 12.8301 23.3941 12.8301 23.5773 12.7221C23.8637 12.5579 23.9999 12.3279 23.9999 12.0087C23.9999 11.6896 23.8637 11.4596 23.5773 11.2954C23.3941 11.1921 23.3566 11.1874 22.051 11.178C21.3137 11.1733 20.6422 11.1874 20.5623 11.2062Z" fill="#493421"/>
    <path d="M5.52521 17.4152C5.32798 17.4715 3.55752 19.1939 3.37437 19.5037C3.08321 20.0012 3.36968 20.6301 3.93791 20.724C4.28073 20.7803 4.40283 20.6911 5.46886 19.6398C6.01831 19.0954 6.49732 18.5838 6.53489 18.4993C6.66169 18.2036 6.60064 17.8657 6.37522 17.6217C6.14511 17.3776 5.87273 17.3119 5.52521 17.4152Z" fill="#493421"/>
    <path d="M17.8246 17.4623C17.463 17.6453 17.2893 18.0302 17.402 18.4057C17.4489 18.5652 17.6368 18.7858 18.4257 19.5837C19.6186 20.7852 19.7829 20.879 20.2666 20.635C20.6282 20.4519 20.802 20.0671 20.6893 19.6916C20.6423 19.5321 20.4545 19.3115 19.6655 18.5136C18.4727 17.3121 18.3083 17.2182 17.8246 17.4623Z" fill="#493421"/>
    <path d="M11.6256 20.0295C11.5364 20.0764 11.4002 20.2031 11.3203 20.3111L11.1794 20.5129V21.949C11.1794 23.3664 11.1794 23.3946 11.2875 23.5776C11.4518 23.8639 11.6819 24 12.0013 24C12.3206 24 12.5507 23.8639 12.7151 23.5776C12.8231 23.3946 12.8231 23.3664 12.8231 21.949V20.5129L12.6822 20.3111C12.5085 20.067 12.2783 19.9403 12.0013 19.9403C11.8839 19.9403 11.7148 19.9778 11.6256 20.0295Z" fill="#493421"/>
</svg>
