<svg width="18" height="18" viewBox="0 0 18 18" fill="none" xmlns="http://www.w3.org/2000/svg">
    <path d="M8.401 0.0224428C7.84856 0.099926 7.24334 0.286591 6.77887 0.515518C6.43755 0.691617 5.94845 1.04029 5.63528 1.33261C4.66763 2.25185 4.10815 3.53385 4.10815 4.82641C4.10815 5.34062 4.18205 5.72099 4.41076 6.39721C4.91042 7.87996 6.21587 10.4334 7.73948 12.9023C8.07024 13.4411 8.32359 13.6384 8.78102 13.7229C9.1892 13.7969 9.69589 13.6278 9.96332 13.3355C10.0267 13.265 10.2765 12.8741 10.5193 12.4691C12.2681 9.54937 13.3554 7.32701 13.76 5.84074C13.8691 5.44628 13.8726 5.40049 13.8726 4.79471C13.8691 4.2312 13.8585 4.12201 13.7776 3.79095C13.5278 2.79423 13.0633 1.99475 12.342 1.31501C11.6875 0.698661 10.8852 0.279546 9.99147 0.0928822C9.60089 0.00835419 8.75991 -0.026865 8.401 0.0224428ZM9.4531 2.64631C10.3715 2.86467 11.0154 3.73108 10.9591 4.67496C10.8923 5.72803 10.0548 6.52048 8.99919 6.52048C7.94357 6.52048 7.10611 5.72803 7.03925 4.67496C6.97944 3.72403 7.61281 2.87172 8.54879 2.64631C8.80566 2.58291 9.18216 2.58291 9.4531 2.64631Z" fill="#493421"/>
    <path d="M5.25169 12.1347C4.31923 12.3777 3.80198 12.6207 3.41844 13.0011C3.13342 13.2828 3.05249 13.4625 3.05249 13.8111C3.05249 14.8501 4.73444 15.5792 7.65147 15.8046C8.34466 15.8574 10.4137 15.8257 11.0048 15.7517C13.6192 15.4207 14.9458 14.7691 14.9458 13.8111C14.9458 13.4625 14.8649 13.2828 14.5798 13.0011C14.3089 12.7299 13.9852 12.5397 13.4785 12.353C13.1231 12.2227 12.1941 11.9868 12.0921 12.0044C12.0393 12.0114 11.9443 12.1417 11.7437 12.4798C11.4834 12.9201 11.4728 12.9483 11.5432 12.9623C11.5854 12.9729 11.7965 13.0117 12.0077 13.0539C12.8029 13.2054 13.6509 13.5153 13.8374 13.7231C13.9042 13.7971 13.9042 13.8006 13.8198 13.8675C13.3061 14.2725 11.9901 14.6106 10.3714 14.7445C9.75918 14.7973 8.23909 14.7973 7.62684 14.7445C6.00822 14.6106 4.69222 14.2725 4.17848 13.8675C4.09403 13.8006 4.09403 13.7971 4.15385 13.7301C4.23478 13.6421 4.56554 13.466 4.86112 13.3533C5.1215 13.2547 5.80765 13.0786 6.14897 13.0187C6.57826 12.9483 6.5677 13.0081 6.25453 12.4798C6.01174 12.0678 5.96952 12.0149 5.88155 12.0079C5.82525 12.0008 5.54375 12.0607 5.25169 12.1347Z" fill="#493421"/>
    <path d="M1.44445 12.6875C0.906082 12.9693 0.392348 13.4518 0.181224 13.8815C-0.0580493 14.3675 -0.061568 14.8536 0.177705 15.3396C0.318455 15.6284 0.807558 16.1355 1.18758 16.3821C2.40506 17.1745 4.55148 17.7416 7.15182 17.9564C7.85557 18.0163 10.1287 18.0128 10.8465 17.9564C13.4398 17.7451 15.5897 17.1781 16.8107 16.3821C17.1908 16.1355 17.6799 15.6284 17.8206 15.3396C18.1619 14.6422 18.0141 13.9378 17.3948 13.318C17.0993 13.0221 16.6629 12.7087 16.4026 12.6101C16.1914 12.5291 16.0225 12.5678 15.8572 12.7333C15.6883 12.8989 15.6531 13.0679 15.7375 13.2863C15.7903 13.4272 15.836 13.4694 16.1457 13.6702C16.677 14.0153 16.9515 14.3323 16.9515 14.6035C16.9515 14.9663 16.4589 15.4276 15.6742 15.801C13.4187 16.8752 9.1962 17.2591 5.59303 16.7132C3.30937 16.368 1.50778 15.6178 1.11721 14.8536C0.930713 14.4837 1.15239 14.1245 1.85262 13.6702C2.16227 13.4694 2.20801 13.4272 2.26079 13.2863C2.36635 13.0116 2.2432 12.7228 1.97226 12.6101C1.79984 12.5361 1.70835 12.5502 1.44445 12.6875Z" fill="#493421"/>
</svg>
