<svg width="24" height="24" viewBox="0 0 24 24" fill="none" xmlns="http://www.w3.org/2000/svg">
    <path d="M9.84989 0.0630131C7.7008 0.306921 5.61491 1.28255 3.92552 2.82105C-0.343935 6.71107 -1.25759 13.5217 1.8109 18.6C4.31052 22.734 8.87303 24.7665 13.3436 23.7346C13.6941 23.6533 14.2285 23.4969 14.5273 23.3906C15.0962 23.1842 16.3661 22.5463 16.6534 22.3212C17.1016 21.9772 17.2683 21.1955 17.0154 20.6639C16.7856 20.1823 16.4236 19.9446 15.9294 19.9446C15.6478 19.9446 15.5099 19.9947 14.9066 20.3199C14.1366 20.7327 13.4068 21.0078 12.6483 21.1767C11.9415 21.333 10.1085 21.333 9.40743 21.1767C6.73543 20.5888 4.50014 18.7251 3.32216 16.0984C2.16142 13.528 2.16142 10.476 3.32216 7.90559C4.76447 4.69101 7.72378 2.68346 11.0221 2.68346C12.4357 2.68346 13.5964 2.98366 14.9066 3.68411C15.5099 4.00932 15.6536 4.05935 15.9294 4.05935C16.6304 4.05935 17.1361 3.50274 17.1361 2.73975C17.1304 2.33323 16.935 1.9017 16.6534 1.68281C16.3431 1.44516 15.079 0.813499 14.4699 0.594608C13.0161 0.0817757 11.3611 -0.112099 9.84989 0.0630131Z" fill="#493421"/>
    <path d="M19.0956 6.79103C18.4808 7.14126 18.2164 7.898 18.4865 8.52966C18.5497 8.67976 18.9405 9.15506 19.4346 9.68666C19.8943 10.187 20.2736 10.6123 20.2736 10.6373C20.2736 10.6685 18.1188 10.6873 15.487 10.6873H10.6946L10.4418 10.8311C10.051 11.0563 9.84993 11.4128 9.82694 11.9256C9.80396 12.4447 9.94761 12.7887 10.3269 13.0889L10.574 13.2827L15.4238 13.3015C18.09 13.3078 20.2736 13.339 20.2736 13.364C20.2736 13.3891 19.8943 13.8143 19.4346 14.3147C18.5497 15.2715 18.3831 15.5404 18.3773 15.9907C18.3716 16.9539 19.3312 17.6105 20.1299 17.1915C20.2793 17.1102 20.9287 16.4535 21.9458 15.3341C23.6696 13.4328 23.8248 13.2139 23.9569 12.4197C24.0144 12.0882 24.0144 11.9131 23.9569 11.5816C23.8248 10.7874 23.6696 10.5685 21.94 8.66099C20.9057 7.5165 20.2793 6.87859 20.1299 6.80354C19.8484 6.6597 19.3312 6.65344 19.0956 6.79103Z" fill="#493421"/>
</svg>
