<svg width="18" height="18" viewBox="0 0 18 18" fill="none" xmlns="http://www.w3.org/2000/svg">
    <path d="M2.02803 0.0578442C1.27915 0.256777 0.610651 0.798555 0.272172 1.49271C-0.0239966 2.08951 -0.00707267 1.57736 0.00562029 9.11569L0.0183132 15.926L0.128319 16.2096C0.441412 17.0138 1.00413 17.5767 1.80802 17.89L2.0915 18H8.96685H15.8422L16.1384 17.9069C16.9634 17.6445 17.6446 16.963 17.9069 16.1376L18 15.8414V8.96332V2.08528L17.89 1.80169C17.5769 0.993258 17.0184 0.434547 16.2103 0.121332L15.9268 0.0112839L9.09378 0.00281906C3.23809 -0.00564575 2.22689 0.00281906 2.02803 0.0578442ZM13.9086 8.19721C14.5983 8.55275 14.5898 9.4924 13.8959 9.81408C13.7352 9.89026 13.5109 9.8945 8.99646 9.8945C4.42277 9.8945 4.26199 9.89026 4.10968 9.81408C3.42003 9.45853 3.42849 8.55275 4.12237 8.18874C4.23661 8.12525 4.75702 8.12102 9.0007 8.11679C13.5955 8.11679 13.7563 8.12102 13.9086 8.19721Z" fill="#838282"/>
</svg>
