<svg width="25" height="24" viewBox="0 0 25 24" fill="none" xmlns="http://www.w3.org/2000/svg">
    <path d="M2.33008 0.111085C1.02232 0.586805 0.236593 2.42382 0.581023 4.20228C0.774765 5.24154 1.34523 6.0832 2.13634 6.51501L2.45924 6.69066L12.2809 6.71262C19.2664 6.72725 22.2048 6.71262 22.4523 6.65407C23.6417 6.37595 24.4974 4.97807 24.4974 3.31671C24.4974 1.77245 23.6794 0.396517 22.5707 0.0744915C22.3662 0.0159411 19.5462 -0.00601482 12.4531 0.00130367C4.03609 0.00130367 2.57764 0.0159411 2.33008 0.111085ZM22.7322 1.14303C23.0874 1.3626 23.448 1.84563 23.6202 2.32867C23.7493 2.67997 23.7709 2.82635 23.7709 3.36062C23.7709 3.8583 23.744 4.04858 23.6471 4.31938C23.4533 4.86097 23.1789 5.23422 22.786 5.4977L22.4254 5.73922H12.4962H2.56688L2.2063 5.4977C0.79091 4.55358 0.909308 1.77977 2.38928 1.08448C2.66375 0.952744 3.09429 0.952744 12.5769 0.967381L22.4793 0.982019L22.7322 1.14303Z" fill="#B3AEAE"/>
    <path d="M2.39461 8.73254C1.75956 8.94479 1.10299 9.61811 0.796236 10.3793C0.40337 11.3673 0.40337 12.6261 0.796236 13.6142C1.11376 14.3973 1.81338 15.0926 2.47533 15.2828C2.67446 15.3414 5.61826 15.3633 12.5122 15.3633C23.1734 15.3633 22.6245 15.3853 23.2273 14.9389C23.6363 14.6388 24.0291 14.0679 24.2659 13.4166C24.465 12.853 24.4704 12.8311 24.4704 12.004C24.4704 11.177 24.465 11.1404 24.2767 10.5988C23.9323 9.61811 23.2542 8.89356 22.5115 8.70327C22.054 8.58617 2.75518 8.61544 2.39461 8.73254ZM22.5061 9.69862C23.0335 9.91087 23.4318 10.3793 23.6578 11.038C23.8139 11.5137 23.8139 12.4798 23.6578 12.9555C23.5179 13.3653 23.2488 13.7898 22.9797 14.0167C22.4953 14.4339 22.9958 14.4119 12.3562 14.3973L2.56682 14.3753L2.26545 14.185C1.85644 13.9216 1.54968 13.5263 1.37208 13.036C1.24292 12.6774 1.22139 12.531 1.22139 11.9967C1.22139 11.521 1.2483 11.2941 1.33441 11.038C1.56044 10.3793 2.00712 9.87427 2.53453 9.68398C2.72827 9.6108 4.97783 9.58884 12.5015 9.58884C21.2199 9.58152 22.2478 9.59616 22.5061 9.69862Z" fill="#B3AEAE"/>
    <path d="M2.59382 17.3176C2.33012 17.3688 1.80809 17.6542 1.59821 17.8518C0.527243 18.8691 0.198958 20.6549 0.796329 22.2577C0.973926 22.7335 1.42061 23.3482 1.76504 23.5824C2.41085 24.0289 1.67355 23.9996 12.4908 23.9996C20.7033 23.9996 22.4201 23.9777 22.6515 23.8971C24.5405 23.2092 25.1325 20.0402 23.7171 18.1885C23.4103 17.7933 22.9098 17.4493 22.4847 17.3468C22.2586 17.2883 19.2018 17.2663 12.4478 17.2737C7.10371 17.281 2.66917 17.3029 2.59382 17.3176ZM22.7268 18.4447C23.1359 18.7081 23.4426 19.1033 23.6202 19.5937C23.7494 19.9523 23.7709 20.0987 23.7709 20.633C23.7709 21.1672 23.7494 21.3136 23.6202 21.6649C23.448 22.148 23.0874 22.631 22.7322 22.8506L22.4793 23.0116H12.4962H2.5131L2.21172 22.8066C1.85653 22.5724 1.50133 22.0821 1.33988 21.599C1.16229 21.0721 1.17843 20.1426 1.37217 19.6303C1.4529 19.4181 1.58744 19.1399 1.67355 19.0009C1.87805 18.6862 2.31397 18.3642 2.63688 18.291C2.7768 18.2617 7.28669 18.2397 12.6576 18.2471L22.4255 18.2544L22.7268 18.4447Z" fill="#B3AEAE"/>
</svg>
