<svg width="24" height="24" viewBox="0 0 24 24" fill="none" xmlns="http://www.w3.org/2000/svg">
    <path d="M11.0102 0.0650101C8.8949 0.370064 7.14103 1.55743 6.45963 3.14371C6.29372 3.51916 6.13374 4.21374 6.13374 4.53288V4.72999L4.5517 4.74407C2.97559 4.75815 2.96374 4.75815 2.626 4.88486C1.992 5.11952 1.52983 5.57006 1.39355 6.07692C1.36392 6.20363 1.02619 9.39966 0.646971 13.1823C0.0070454 19.5697 -0.0403565 20.0906 0.0188959 20.5271C0.23813 22.1274 1.55946 23.3711 3.56811 23.8686L4.08953 24H11.9997H19.9099L20.4313 23.8686C22.44 23.3711 23.7554 22.1274 23.9806 20.5271C24.0398 20.0906 23.9983 19.5791 23.3525 13.1823C22.9733 9.39966 22.6355 6.20363 22.6059 6.07692C22.4696 5.57006 22.0075 5.11952 21.3735 4.88486C21.0357 4.75815 21.0239 4.75815 19.4537 4.74407L17.8657 4.72999V4.53288C17.8657 4.21844 17.7057 3.51916 17.5517 3.16248C16.9651 1.80147 15.5904 0.70797 13.8899 0.252737C12.9774 0.00399971 11.9108 -0.0663967 11.0102 0.0650101ZM12.8115 1.47764C14.4172 1.74046 15.6615 2.72602 15.9933 3.99786C16.0467 4.19497 16.0881 4.43901 16.0881 4.54696V4.73468H11.9997H7.91131V4.54696C7.91131 4.43901 7.95279 4.19497 8.00612 3.99786C8.46236 2.24732 10.6191 1.11627 12.8115 1.47764ZM6.13374 7.06717C6.13374 7.90255 6.14559 8.01049 6.25817 8.18883C6.3826 8.40002 6.73812 8.58305 7.02253 8.58305C7.28324 8.58305 7.64468 8.40471 7.78096 8.21229C7.90539 8.04334 7.91131 7.96825 7.91131 7.08594V6.14262H11.9997H16.0881V7.08594C16.0881 7.96825 16.0941 8.04334 16.2185 8.21229C16.3548 8.40471 16.7162 8.58305 16.9769 8.58305C17.2613 8.58305 17.6169 8.40002 17.7413 8.18883C17.8539 8.01049 17.8657 7.90255 17.8657 7.06717V6.14262H19.2581C20.8935 6.14262 20.8461 6.12854 20.9054 6.61663C20.9231 6.78089 21.2431 9.90652 21.6045 13.5578C22.203 19.5368 22.2622 20.2314 22.203 20.5271C22.0015 21.4798 21.0061 22.3199 19.8151 22.5451C19.2463 22.6484 4.75316 22.6484 4.18434 22.5451C2.99337 22.3199 1.99793 21.4798 1.79647 20.5271C1.73721 20.2314 1.79647 19.5321 2.39492 13.5578C2.75636 9.90652 3.07632 6.78089 3.09409 6.61663C3.15335 6.12854 3.10594 6.14262 4.74131 6.14262H6.13374V7.06717Z" fill="#493421"/>
    <path d="M14.992 11.8027C14.8972 11.8403 13.9076 12.5912 12.7996 13.4641L10.785 15.0597L10.0148 14.4496C9.00747 13.6518 8.75268 13.5486 8.23126 13.7504C8.04758 13.8208 7.94685 13.9005 7.85797 14.046C7.70392 14.2948 7.70392 14.4496 7.84612 14.6749C7.9587 14.8439 10.0503 16.5193 10.3406 16.6742C10.5066 16.7587 10.9035 16.7727 11.1524 16.6977C11.3953 16.6273 16.0052 12.9713 16.1474 12.732C16.3014 12.4879 16.2955 12.3096 16.1296 12.0843C15.8985 11.7652 15.389 11.6385 14.992 11.8027Z" fill="#493421"/>
</svg>
