<svg width="18" height="18" viewBox="0 0 18 18" fill="none" xmlns="http://www.w3.org/2000/svg">
    <path d="M4.75538 0.0195236C4.04736 0.104006 3.43444 0.287048 2.83914 0.593294C1.39139 1.34307 0.369863 2.72293 0.0669276 4.34216C0.0035225 4.67305 0 4.94409 0 9.00624C0 13.0684 0.0035225 13.3394 0.0669276 13.6703C0.472016 15.8422 2.1593 17.5283 4.33268 17.9331C4.6638 17.9965 4.93503 18 9.03522 18H13.3855L13.7554 17.919C15.3863 17.56 16.6755 16.592 17.4153 15.1664C17.6548 14.7087 17.7992 14.2969 17.919 13.7583L18 13.3887V9.04144C18 4.94409 17.9965 4.67305 17.9331 4.34216C17.5562 2.3146 16.0591 0.695375 14.083 0.170887C13.4419 -0.00159645 13.3432 -0.00511742 8.96478 0.00192261C6.70685 0.00192261 4.81526 0.0124836 4.75538 0.0195236ZM9.29941 3.96199C9.52133 4.03591 9.74677 4.2612 9.82074 4.48296C9.87358 4.63433 9.88063 4.86665 9.88063 6.39084V8.12623H11.6172C13.5863 8.12623 13.5793 8.12623 13.8434 8.39023C14.002 8.54863 14.1076 8.79504 14.1076 9.00624C14.1076 9.21745 14.002 9.46385 13.8434 9.62225C13.5793 9.88626 13.5863 9.88626 11.6172 9.88626H9.88063V11.6216C9.88063 13.5894 9.88063 13.5823 9.61644 13.8463C9.27123 14.1913 8.72877 14.1913 8.38356 13.8463C8.11937 13.5823 8.11937 13.5894 8.11937 11.6216V9.88626H6.38278C4.4137 9.88626 4.42074 9.88626 4.15656 9.62225C3.81135 9.27729 3.81135 8.7352 4.15656 8.39023C4.42074 8.12623 4.4137 8.12623 6.38278 8.12623H8.11937V6.39084C8.11937 4.42312 8.11937 4.43016 8.38356 4.16616C8.62661 3.91975 8.96125 3.84583 9.29941 3.96199Z" fill="#D7A53F"/>
</svg>
