<svg width="24" height="24" viewBox="0 0 24 24" fill="none" xmlns="http://www.w3.org/2000/svg">
    <path d="M11.2482 0.12249C11.0747 0.191664 10.6988 0.372585 10.4154 0.521578C8.06169 1.80931 5.26265 2.6873 2.4 3.0385C1.10458 3.19814 0.57253 3.48548 0.18506 4.24641L0 4.60293V8.35437C0 12.5262 0.00578313 12.5847 0.404819 14.0321C1.20289 16.8949 3.16337 19.4384 5.84675 21.0986C6.41928 21.4551 10.7971 23.706 11.2482 23.8763C11.6877 24.0412 12.3123 24.0412 12.7576 23.8763C13.226 23.6954 17.4246 21.5403 18.0723 21.1465C21.2241 19.2202 23.2887 16.2297 23.8959 12.7177C23.9884 12.1697 24 11.7174 24 8.35437V4.60293L23.8149 4.24641C23.439 3.51741 22.8781 3.19282 21.7388 3.05979C18.8414 2.71391 16.2275 1.90509 13.654 0.564148C13.2376 0.340658 12.7807 0.12781 12.6419 0.0799198C12.2602 -0.0424671 11.6299 -0.021183 11.2482 0.12249ZM12.6535 1.99023C15.3542 3.43227 18.2342 4.34752 21.253 4.71468C21.7157 4.76789 22.0106 4.83174 22.08 4.88495C22.1783 4.96477 22.1841 5.14569 22.161 8.56722C22.1378 12.5049 22.132 12.5741 21.7446 13.8086C20.987 16.2297 19.3619 18.2944 17.1239 19.6832C16.534 20.0503 12.133 22.2959 12.0058 22.2959C11.8901 22.2959 7.66843 20.1568 6.99759 19.7524C6.39036 19.3958 5.95663 19.0766 5.3841 18.5711C3.54506 16.9534 2.42892 15.0112 1.9547 12.6113C1.87373 12.175 1.85639 11.6163 1.83904 8.54061C1.8159 5.15101 1.82169 4.96477 1.92 4.88495C1.9894 4.83174 2.28434 4.76789 2.74699 4.71468C5.00241 4.43797 7.29831 3.82072 9.39759 2.93208C10.1667 2.60216 11.6646 1.86784 11.7976 1.75077C11.9133 1.64967 12.1388 1.71353 12.6535 1.99023Z" fill="#493421"/>
    <path d="M15.5971 8.36495C15.5219 8.4022 14.5388 9.33341 13.4111 10.4402C12.2834 11.547 11.3407 12.4516 11.3176 12.4516C11.2945 12.4516 10.9243 12.159 10.4964 11.8078C9.2935 10.818 9.06796 10.6531 8.83663 10.5945C8.3682 10.4721 7.82458 10.7755 7.72049 11.2065C7.66844 11.414 7.67422 11.5045 7.78988 11.7758C7.8882 12.01 10.8376 14.3992 11.121 14.479C11.4564 14.5695 11.7398 14.5003 12.0289 14.2555C12.4222 13.9203 16.7595 9.64736 16.8405 9.51433C16.881 9.44515 16.9099 9.26955 16.9157 9.12588C16.9157 8.63101 16.5571 8.3011 16.0193 8.30642C15.8631 8.30642 15.6723 8.33302 15.5971 8.36495Z" fill="#493421"/>
</svg>
