<svg width="24" height="24" viewBox="0 0 24 24" fill="none" xmlns="http://www.w3.org/2000/svg">
    <path d="M7.42298 0.0786076C6.85966 0.177185 6.36675 0.332092 5.8621 0.571493C5.51589 0.735788 2.02445 3.03592 1.47873 3.4537C0.891932 3.90434 0.445966 4.51458 0.164303 5.23279L0 5.64587V13.4851C0 20.9488 0.00586797 21.3384 0.105623 21.6295C0.469438 22.6528 1.45526 23.493 2.72274 23.8545L3.22738 24H12H20.7726L21.2421 23.8686C22.533 23.5071 23.5247 22.6622 23.8944 21.6295C23.9941 21.3384 24 20.9066 24 12.0064C24 3.10633 23.9941 2.67447 23.8944 2.38344C23.5247 1.35072 22.533 0.505775 21.2421 0.144325L20.7726 0.0128899L14.3472 0.00350189C8.33839 -0.00588608 7.89242 -0.00119209 7.42298 0.0786076ZM20.7609 1.71687C21.4064 1.9281 21.8641 2.4116 21.9814 3.00306C22.0166 3.19083 22.0342 6.60348 22.0225 12.2177C22.0049 20.5029 21.999 21.1507 21.9051 21.3384C21.7408 21.6623 21.4592 21.9534 21.1364 22.1223C20.5262 22.4462 21.0249 22.4322 11.8181 22.4181L3.52078 22.404L3.19804 22.2819C2.57604 22.0519 2.19462 21.6811 2.04792 21.1647C1.98337 20.9535 1.96577 19.503 1.96577 13.5555C1.96577 8.65013 1.98924 6.1059 2.03032 5.90405C2.10073 5.56138 2.4 5.02624 2.66993 4.76806C2.86357 4.58499 6.2846 2.30363 6.82445 2.00321C7.11198 1.83891 7.64597 1.66523 8.00978 1.61829C8.09193 1.60421 10.9144 1.59951 14.2885 1.60421L20.4205 1.6089L20.7609 1.71687Z" fill="#DADADA"/>
    <path d="M15.4792 4.84792C15.3267 4.92303 15.1917 5.04038 15.1154 5.16712C14.9922 5.36428 14.9922 5.43 14.9922 7.95076C14.9922 10.3495 15.0039 10.5419 15.1037 10.7156C15.1624 10.8189 15.2621 10.9409 15.3208 10.9832C15.4792 11.0958 15.8372 11.2085 16.0308 11.2085C16.3125 11.2085 16.6822 11.0254 16.8406 10.8095L16.9873 10.6076L16.9756 7.90851C16.958 5.26101 16.958 5.20468 16.8347 5.07794C16.6235 4.84792 16.424 4.76343 16.066 4.74465C15.7785 4.73057 15.6846 4.74465 15.4792 4.84792Z" fill="#DADADA"/>
    <path d="M11.6474 6.51914C11.4597 6.58017 11.1897 6.78202 11.0841 6.94631C11.0196 7.04958 11.002 7.40634 11.002 8.80989C11.002 9.91771 11.0254 10.5937 11.0665 10.6782C11.1545 10.8659 11.4597 11.1053 11.6944 11.1664C12.1462 11.2884 12.7271 11.0678 12.9149 10.7063C13.0205 10.5139 13.0323 7.20918 12.9325 6.99795C12.7506 6.60364 12.1227 6.36893 11.6474 6.51914Z" fill="#DADADA"/>
    <path d="M7.59945 7.17646C7.40581 7.23748 7.20043 7.39708 7.0948 7.56138C6.95984 7.76792 6.97744 10.5469 7.11241 10.7722C7.2239 10.9646 7.55837 11.1571 7.85764 11.1947C8.30947 11.251 8.81999 10.9834 8.94908 10.6079C8.98429 10.5093 9.00776 9.88029 9.00776 9.11984C9.00776 7.94161 8.99603 7.7867 8.89627 7.61771C8.65568 7.20462 8.10409 7.01686 7.59945 7.17646Z" fill="#DADADA"/>
    <path d="M5.68638 13.6916C5.10546 13.9028 4.91768 14.438 5.27563 14.8698C5.56316 15.2219 5.09959 15.1984 12.0825 15.1984C17.2991 15.1984 18.3729 15.189 18.5372 15.1327C18.9304 15.0013 19.1651 14.6116 19.0771 14.2361C19.0243 14.0108 18.6781 13.7104 18.4081 13.6493C18.2673 13.6212 16.0257 13.6024 12.059 13.6024C6.2145 13.6024 5.91523 13.6071 5.68638 13.6916Z" fill="#DADADA"/>
    <path d="M5.65634 17.6442C5.10475 17.7381 4.77027 18.2357 4.95218 18.6863C5.0402 18.8976 5.3512 19.1229 5.6446 19.1839C5.94973 19.2543 18.0436 19.2543 18.3488 19.1886C18.9414 19.0525 19.2583 18.5455 19.0177 18.0949C18.9297 17.9212 18.6304 17.7005 18.4368 17.663C18.249 17.6254 5.87932 17.6114 5.65634 17.6442Z" fill="#DADADA"/>
</svg>
