<svg width="25" height="24" viewBox="0 0 25 24" fill="none" xmlns="http://www.w3.org/2000/svg">
    <path d="M9.05343 0.0333729C5.65753 0.507454 2.93436 2.45227 1.48666 5.44761C0.501797 7.47323 0.254236 9.62276 0.743977 11.8316C1.38441 14.6922 3.34337 17.1542 5.99658 18.431C9.12877 19.9341 12.7076 19.6862 15.5707 17.763C16.6686 17.0357 17.5459 16.1468 18.2885 15.037C20.8449 11.1959 20.339 6.12641 17.0776 2.84015C15.6407 1.39636 13.9078 0.491293 11.825 0.103407C11.3138 0.0118237 9.55393 -0.0366631 9.05343 0.0333729ZM11.0339 1.32632C13.0413 1.53643 14.6881 2.32298 16.1035 3.74522C16.8355 4.47789 17.2768 5.08127 17.6858 5.88937C18.3101 7.14461 18.5792 8.28133 18.5792 9.6928C18.5792 11.9878 17.6965 14.0888 16.0551 15.6996C14.9411 16.7986 13.4611 17.5744 11.825 17.93C11.0339 18.1024 9.38171 18.1024 8.56907 17.9246C6.86305 17.5583 5.46379 16.804 4.26365 15.6027C2.27778 13.6148 1.44361 10.8457 1.9764 8.01196C2.17553 6.96144 2.72447 5.7062 3.38642 4.77958C5.10859 2.37146 8.10624 1.01925 11.0339 1.32632Z" fill="#B3AEAE"/>
    <path d="M18.5253 16.179C18.52 16.3083 17.4598 17.3911 16.8139 17.9299L16.6417 18.0753L16.744 18.3177C16.8785 18.6194 17.5459 19.8477 17.6051 19.8801C17.6266 19.8962 18.2724 19.2767 19.0366 18.5117C20.3605 17.1864 20.4251 17.111 20.3282 17.0356C20.1614 16.917 18.6545 16.1413 18.5845 16.1413C18.5523 16.1413 18.5253 16.1574 18.5253 16.179Z" fill="#B3AEAE"/>
    <path d="M19.6339 19.1529L18.0786 20.7098L18.4984 21.3185C19.8331 23.2741 20.4089 23.7913 21.4153 23.9637C21.9643 24.0553 22.5024 23.9745 23.0298 23.7105C24.3591 23.0533 24.8812 21.4478 24.2031 20.1064C23.9986 19.697 23.7187 19.4007 23.0944 18.905C22.5509 18.4848 21.2861 17.5959 21.2216 17.5959C21.2054 17.5959 20.4896 18.2963 19.6339 19.1529Z" fill="#B3AEAE"/>
</svg>
