<svg width="24" height="24" viewBox="0 0 24 24" fill="none" xmlns="http://www.w3.org/2000/svg">
    <path d="M10.5205 0.0290775C10.2857 0.090107 9.99452 0.259115 9.81135 0.442207C9.50607 0.742664 9.43092 0.991482 9.29002 2.10412C9.22427 2.65808 9.14442 3.13225 9.12094 3.16511C9.09746 3.19797 9.00352 3.24492 8.90959 3.27308C8.81566 3.30595 8.51976 3.42332 8.25206 3.54068L7.7683 3.75664L7.59452 3.6158C6.782 2.97263 6.16673 2.51725 5.98826 2.42805C5.70176 2.28251 5.24149 2.24965 4.87984 2.35763C4.61213 2.43274 4.56517 2.47499 3.51311 3.5219C2.46575 4.57351 2.42348 4.62045 2.34834 4.88805C2.24031 5.25423 2.27319 5.70961 2.41879 5.99599C2.47984 6.11335 2.77573 6.52179 3.07632 6.91145C3.82309 7.86446 3.77143 7.75648 3.60705 8.08511C3.5272 8.24003 3.40509 8.52641 3.33464 8.71889C3.26419 8.91137 3.17965 9.09446 3.15147 9.12263C3.12329 9.1508 2.64423 9.23061 2.09002 9.30103C0.972211 9.44187 0.732681 9.51698 0.432094 9.81744C0.333464 9.91133 0.201957 10.0991 0.12681 10.2353L0 10.4794V11.9817V13.484L0.122114 13.7469C0.192564 13.8924 0.32407 14.0896 0.422701 14.1882C0.732681 14.498 0.986301 14.5778 2.05245 14.7093C2.57378 14.7703 3.04814 14.8407 3.0998 14.8642C3.15616 14.8877 3.23131 15.005 3.28297 15.1553C3.32994 15.2961 3.45675 15.5919 3.56008 15.8172C3.68689 16.1036 3.73386 16.2491 3.70098 16.2867C3.6775 16.3195 3.40039 16.6763 3.09041 17.0754C2.78043 17.4744 2.47984 17.8969 2.41879 18.0143C2.27319 18.3007 2.24031 18.7561 2.34834 19.1223C2.42348 19.3898 2.46575 19.4368 3.51311 20.4884C4.56517 21.5353 4.61213 21.5776 4.87984 21.6527C5.24149 21.7606 5.70176 21.7278 5.98826 21.5823C6.16673 21.4931 6.782 21.0377 7.59452 20.3945L7.7683 20.2537L8.25206 20.4696C8.51976 20.587 8.81566 20.7044 8.90959 20.7372C9.00352 20.7654 9.09746 20.8123 9.12094 20.8452C9.14442 20.8781 9.22427 21.3522 9.29002 21.9062C9.43092 23.0235 9.50607 23.2676 9.81605 23.5775C9.91468 23.6761 10.1119 23.8075 10.2575 23.8779L10.5205 24H12H13.4795L13.7425 23.8779C13.8881 23.8075 14.0853 23.6761 14.184 23.5775C14.4986 23.2629 14.5738 23.0141 14.71 21.9015C14.7757 21.3522 14.8556 20.8781 14.8838 20.8499C14.9119 20.8217 15.0951 20.7372 15.2877 20.6668C15.4802 20.5964 15.7667 20.4743 15.9217 20.3945C16.2505 20.2302 16.1425 20.1785 17.0959 20.925C17.4857 21.2255 17.8943 21.5212 18.0117 21.5823C18.2982 21.7278 18.7538 21.7606 19.1202 21.6527C19.3879 21.5776 19.4348 21.5353 20.4869 20.4884C21.5342 19.4368 21.5765 19.3898 21.6517 19.1223C21.7597 18.7561 21.7268 18.3007 21.5812 18.0143C21.4967 17.85 21.0552 17.2538 20.299 16.2914C20.2708 16.2491 20.3225 16.0801 20.4681 15.7515C20.5855 15.4839 20.7029 15.1881 20.7358 15.0942C20.764 15.0003 20.811 14.9064 20.8438 14.883C20.8767 14.8595 21.3511 14.7797 21.9053 14.714C23.0231 14.5731 23.2673 14.498 23.5773 14.1882C23.6759 14.0896 23.8074 13.8924 23.8779 13.7469L24 13.484V12.0051V10.5263L23.8779 10.2634C23.8074 10.1179 23.6759 9.92072 23.5773 9.82213C23.2673 9.51229 23.0184 9.43717 21.8912 9.28694C21.3323 9.21652 20.8579 9.13671 20.8344 9.11324C20.811 9.08977 20.7358 8.91137 20.6654 8.71889C20.5949 8.52641 20.4728 8.24003 20.393 8.08511C20.2286 7.75648 20.1769 7.86446 20.9237 6.91145C21.2243 6.52179 21.5202 6.11335 21.5812 5.99599C21.7268 5.70961 21.7597 5.25423 21.6517 4.88805C21.5765 4.62045 21.5342 4.57351 20.4869 3.5219C19.4348 2.47499 19.3879 2.43274 19.1202 2.35763C18.7538 2.24965 18.2982 2.28251 18.0117 2.42805C17.8943 2.48908 17.4857 2.78484 17.0959 3.0853C16.1425 3.83175 16.2505 3.78011 15.9217 3.6158C15.7667 3.53599 15.4802 3.41393 15.2877 3.34351C15.0951 3.27308 14.9119 3.18858 14.8838 3.16041C14.8556 3.13225 14.7757 2.65808 14.71 2.10412C14.5691 0.986788 14.4939 0.74736 14.184 0.432817C14.0853 0.33423 13.8881 0.20278 13.7425 0.132359L13.4795 0.0102978L12.0704 0.000909805C11.2955 -0.00378609 10.6004 0.0102978 10.5205 0.0290775ZM13.3104 1.03373C13.564 1.16049 13.5969 1.26377 13.7613 2.54541C13.8787 3.47496 13.935 3.78011 14.0008 3.86931C14.0665 3.95381 14.2544 4.04301 14.6583 4.18854C14.9683 4.29652 15.4521 4.49839 15.7339 4.63454C16.18 4.85049 16.2599 4.87396 16.3867 4.83641C16.4665 4.81293 16.9644 4.45614 17.4951 4.04301C18.7867 3.03835 18.58 3.01957 19.7824 4.2261C20.9894 5.42793 20.9753 5.21198 19.9515 6.53118C19.5335 7.07106 19.1765 7.57809 19.1577 7.64851C19.1389 7.75648 19.1859 7.89732 19.3738 8.28698C19.51 8.55927 19.7025 9.01465 19.8059 9.29633C20.0266 9.91603 20.0501 9.96767 20.1816 10.0381C20.238 10.071 20.825 10.1648 21.4826 10.2493C22.746 10.409 22.8493 10.4418 22.9761 10.6953C23.0607 10.855 23.0607 13.1553 22.9761 13.315C22.8493 13.5685 22.746 13.6013 21.4779 13.761C20.8204 13.8502 20.238 13.944 20.1816 13.9722C20.0501 14.0426 20.0219 14.0943 19.8012 14.7187C19.7025 15.005 19.5053 15.4604 19.3738 15.7374C19.153 16.1834 19.1296 16.2538 19.1718 16.39C19.1953 16.4698 19.5522 16.9674 19.9656 17.4979C20.9706 18.7889 20.9894 18.5824 19.7824 19.7842C18.58 20.9907 18.7961 20.9766 17.4763 19.9532C16.9362 19.5354 16.429 19.1786 16.3585 19.1598C16.2505 19.141 16.1096 19.188 15.7198 19.3758C15.4474 19.5119 14.9871 19.7044 14.7006 19.8077C14.4188 19.911 14.137 20.0236 14.0806 20.0612C13.935 20.1551 13.8975 20.3288 13.7425 21.5776C13.5969 22.7371 13.564 22.8498 13.3104 22.9766C13.1507 23.0611 10.8493 23.0611 10.6896 22.9766C10.436 22.8451 10.4031 22.7465 10.2434 21.4696C10.1213 20.526 10.0697 20.2349 9.99922 20.141C9.93346 20.0565 9.75029 19.9673 9.34638 19.8218C9.0317 19.7138 8.55264 19.5119 8.27554 19.3805C7.88102 19.188 7.74481 19.141 7.63679 19.1645C7.56164 19.1786 7.09198 19.5119 6.59413 19.8969C6.09159 20.2865 5.62192 20.6386 5.55147 20.6762C5.27436 20.817 5.18513 20.756 4.20352 19.7748C3.01526 18.5824 3.02935 18.7936 4.04853 17.4791C4.46654 16.9392 4.82348 16.4369 4.83757 16.3665C4.86106 16.2679 4.80939 16.113 4.62622 15.7374C4.49472 15.4604 4.29746 15.0003 4.19883 14.714C4.0955 14.4229 3.97808 14.1412 3.94051 14.0849C3.84658 13.9393 3.6728 13.9018 2.42348 13.7469C1.26341 13.6013 1.15068 13.5685 1.02387 13.315C0.939335 13.1553 0.939335 10.855 1.02387 10.6953C1.15068 10.4418 1.26341 10.409 2.42348 10.2634C3.6728 10.1085 3.84658 10.071 3.94051 9.92542C3.97808 9.86908 4.0908 9.5874 4.19413 9.30572C4.29746 9.01935 4.49002 8.55927 4.62622 8.28229C4.84697 7.8316 4.87045 7.75648 4.82818 7.62503C4.8047 7.54053 4.44775 7.0429 4.03444 6.5124C3.02935 5.22137 3.01057 5.42793 4.21761 4.2261C5.41996 3.01957 5.21331 3.03835 6.50489 4.04301C7.03562 4.45614 7.53346 4.81293 7.61331 4.83641C7.74481 4.87866 7.82466 4.85518 8.29902 4.62045C8.59022 4.47961 9.05049 4.28713 9.3229 4.18854C9.5953 4.09465 9.86301 3.98667 9.91937 3.95381C10.065 3.85522 10.1025 3.68152 10.2575 2.43274C10.4031 1.27316 10.436 1.16049 10.6896 1.03373C10.7695 0.991482 11.1405 0.972704 12 0.972704C12.8595 0.972704 13.2305 0.991482 13.3104 1.03373Z" fill="#493421"/>
    <path d="M11.427 7.0288C9.69391 7.24475 8.21915 8.31983 7.46768 9.90662C6.56592 11.8174 6.98862 14.1036 8.51504 15.5825C10.0227 17.0378 12.2348 17.4228 14.09 16.5402C15.2078 16.0144 16.0109 15.2116 16.5323 14.1036C17.7487 11.531 16.5417 8.47475 13.8646 7.36212C13.1741 7.07574 12.155 6.93491 11.427 7.0288ZM12.7984 8.0804C13.8364 8.30105 14.7334 8.91136 15.3299 9.79865C15.7855 10.4794 15.9921 11.1789 15.9921 12.0239C15.9874 13.3807 15.3487 14.5637 14.2027 15.3336C13.7659 15.6294 13.1835 15.8641 12.6763 15.9533C12.4931 15.9862 12.1268 16.0003 11.7933 15.9862C11.1076 15.958 10.5534 15.7937 9.95692 15.4416C9.51074 15.1787 8.90487 14.5966 8.62776 14.1647C8.39762 13.8126 8.16749 13.2445 8.07355 12.8032C7.98901 12.4089 7.98901 11.6014 8.07355 11.207C8.40702 9.64372 9.61406 8.42781 11.1781 8.0851C11.5538 8.00059 12.418 8.00059 12.7984 8.0804Z" fill="#493421"/>
</svg>
