<svg width="25" height="24" viewBox="0 0 25 24" fill="none" xmlns="http://www.w3.org/2000/svg">
    <path d="M11.423 0.026783C9.43413 0.219238 7.46398 0.91865 5.85034 2.00297C4.53222 2.89014 3.35483 4.07304 2.48234 5.38737C2.08362 5.98821 1.46912 7.19927 1.2252 7.87052C-0.669891 13.0668 1.24396 18.9062 5.85972 21.9949C8.70236 23.896 12.2392 24.478 15.6025 23.6002C17.5305 23.0933 19.3693 22.0512 20.8469 20.6101C24.0132 17.5308 25.2328 13.0527 24.0648 8.79055C23.1829 5.56575 20.8938 2.77279 17.8964 1.2707C16.6767 0.660477 15.5181 0.299036 14.1203 0.0924988C13.5339 0.00800514 12.0141 -0.0295467 11.423 0.026783ZM13.609 0.594761C16.2311 0.852932 18.7266 2.03114 20.5936 3.89936C22.7373 6.04923 23.9475 8.96892 23.9475 11.9966C23.9475 15.0242 22.7373 17.9439 20.5936 20.0938C18.4499 22.2343 15.5228 23.45 12.5066 23.45C8.12539 23.45 4.12412 20.9434 2.20089 16.991C0.985966 14.4938 0.727972 11.5788 1.48788 8.87974C2.64652 4.72552 6.15055 1.52887 10.3911 0.735582C11.4136 0.547821 12.6004 0.496185 13.609 0.594761Z" fill="#DADADA"/>
    <path d="M11.9436 5.75808C10.799 5.88951 9.82801 6.44341 9.26981 7.28364C8.83825 7.92672 8.66 8.81859 8.72098 10.0343C8.73974 10.3723 8.73505 10.6352 8.7116 10.6352C8.68815 10.6352 8.56618 10.6023 8.43953 10.5648C7.97045 10.424 7.6374 10.4944 7.34188 10.7995C7.21992 10.9262 7.18239 11.006 7.16363 11.1938C7.12141 11.6679 7.35595 11.9307 8.07365 12.203C8.63186 12.4189 8.67407 12.4518 8.63186 12.6536C8.58026 12.893 8.07834 13.5971 7.71715 13.9351C7.34188 14.2918 7.0276 14.4655 6.44124 14.6439C5.96747 14.7847 5.84082 14.9068 5.84082 15.1978C5.84082 15.4278 5.92995 15.6015 6.15041 15.7986C6.3615 15.9817 6.50223 16.0427 7.01352 16.1741C7.5389 16.3056 7.60457 16.3572 7.69369 16.667C7.83442 17.1458 7.91416 17.1787 8.8664 17.1364C9.62631 17.1036 9.63569 17.1036 9.89838 17.2256C10.0438 17.2913 10.3346 17.4509 10.5457 17.5777C11.4557 18.1222 11.8451 18.2583 12.5018 18.2583C13.2195 18.2583 13.7824 18.0518 14.5048 17.5307C15.0677 17.1223 15.138 17.1036 16.1512 17.1223L17.0097 17.1364L17.1457 16.9909C17.2207 16.9064 17.2911 16.7562 17.3099 16.6482C17.3521 16.3901 17.4787 16.3009 17.9713 16.1788C18.7734 15.977 19.1627 15.6578 19.1627 15.2072C19.1627 14.9537 18.947 14.7612 18.506 14.6298C17.6195 14.3576 17.005 13.8412 16.4937 12.9306C16.2591 12.5081 16.292 12.4377 16.8314 12.2405C17.4881 11.9918 17.7555 11.7852 17.8493 11.4426C17.9103 11.2079 17.8399 10.9778 17.6523 10.776C17.3708 10.4897 16.9862 10.4193 16.5077 10.5648C16.3811 10.6023 16.2732 10.6352 16.2732 10.6352C16.2685 10.6352 16.2685 10.208 16.2685 9.68229C16.2685 8.5792 16.2169 8.26 15.9167 7.631C15.7619 7.30711 15.6493 7.1616 15.321 6.82832C14.9691 6.47627 14.8472 6.38708 14.4203 6.18524C13.8809 5.92237 13.5713 5.82849 12.9709 5.75808C12.5299 5.70175 12.4408 5.70175 11.9436 5.75808ZM13.5572 6.43402C14.6408 6.74852 15.3444 7.41977 15.6259 8.40552C15.6915 8.63552 15.7103 8.89839 15.7103 9.85128L15.715 11.0201L15.8276 11.1093C15.9589 11.2172 16.2357 11.2266 16.5546 11.1281C16.944 11.0107 17.202 11.0389 17.2911 11.2079C17.3708 11.3581 17.1926 11.4989 16.6578 11.7148C15.6728 12.1091 15.5602 12.4142 16.0668 13.2826C16.6016 14.198 17.3239 14.7988 18.2621 15.1133C18.445 15.1743 18.5764 15.2494 18.5764 15.287C18.5764 15.3855 18.2386 15.5498 17.8728 15.6343C17.2067 15.7798 16.8595 16.0286 16.7986 16.3995L16.7704 16.5919L15.912 16.5825C15.0723 16.5731 15.0536 16.5731 14.7862 16.6999C14.6408 16.7703 14.3969 16.9205 14.2468 17.0332C13.6839 17.465 13.0318 17.7232 12.5065 17.7232C11.9905 17.7185 11.6058 17.573 10.6958 17.0238C9.94528 16.5684 9.78111 16.5309 8.92738 16.5638C8.23783 16.5966 8.23314 16.5966 8.23314 16.4933C8.23314 16.437 8.19092 16.3009 8.13463 16.1882C8.00798 15.9254 7.76405 15.7845 7.22461 15.6578C6.77898 15.5545 6.42717 15.3902 6.42717 15.287C6.42717 15.2494 6.65702 15.1321 6.98069 15.0006C7.28559 14.8786 7.64678 14.7002 7.78282 14.6063C8.47706 14.1275 9.21821 13.0385 9.21821 12.494C9.21821 12.2875 9.19944 12.2452 9.03527 12.0903C8.90392 11.9636 8.72098 11.8697 8.41608 11.7571C7.94231 11.5881 7.71715 11.4332 7.71715 11.2736C7.71715 11.0483 7.947 11.0013 8.42077 11.1281C8.78196 11.2266 9.04465 11.2172 9.17599 11.1093L9.28857 11.0201V9.80434C9.29326 8.76226 9.30264 8.55573 9.3777 8.3351C9.67322 7.44324 10.3205 6.78607 11.2118 6.48096C11.9248 6.23687 12.8161 6.21809 13.5572 6.43402Z" fill="#DADADA"/>
</svg>
