<svg width="18" height="18" viewBox="0 0 18 18" fill="none" xmlns="http://www.w3.org/2000/svg">
    <path d="M8.52798 0.0940685C8.27436 0.200592 8.10176 0.340178 7.95734 0.5569C7.89746 0.645058 7.40783 1.65153 6.86888 2.79392C6.32994 3.93631 5.86145 4.9134 5.8227 4.97217C5.78395 5.02727 5.70646 5.09706 5.6501 5.12645C5.59022 5.1595 4.5863 5.32847 3.23366 5.53418C0.693933 5.9162 0.697456 5.9162 0.390998 6.21373C0.292368 6.30556 0.18317 6.46719 0.116243 6.61045C0.01409 6.82717 0.0035225 6.88961 0 7.18348C0 7.47366 0.01409 7.54346 0.102153 7.74549C0.193738 7.95486 0.334638 8.10914 1.61683 9.41682C2.3953 10.2066 3.16673 10.9963 3.33581 11.169C3.5683 11.4077 3.64931 11.5179 3.6775 11.6355C3.71272 11.7677 3.67397 12.0542 3.32524 14.1517C2.90254 16.7193 2.88845 16.8515 3.03992 17.2041C3.29706 17.8066 4.0227 18.1445 4.61448 17.9351C4.73072 17.8911 5.72055 17.3658 6.81605 16.7634C8.72524 15.7128 8.81331 15.6687 9 15.6687C9.18669 15.6687 9.27123 15.7128 11.1628 16.7523C12.2477 17.3474 13.2305 17.8764 13.3468 17.9204C13.6462 18.0417 14.0372 18.0233 14.3295 17.8727C14.5726 17.7478 14.8544 17.4466 14.9566 17.2041C15.1115 16.8442 15.0975 16.7193 14.6748 14.1517C14.326 12.0579 14.2873 11.7677 14.3225 11.6355C14.3683 11.4592 14.2626 11.573 16.2881 9.51233C17.6513 8.12383 17.7922 7.96955 17.8908 7.75283C17.9859 7.54346 18 7.47734 18 7.20184C17.9965 6.78676 17.9014 6.53331 17.6477 6.26149C17.3202 5.91253 17.3659 5.92354 14.7663 5.53051C13.4313 5.32847 12.4063 5.1595 12.3464 5.12645C12.29 5.09706 12.216 5.02727 12.1773 4.97217C12.1386 4.9134 11.6701 3.93631 11.1311 2.79392C10.5922 1.65153 10.1025 0.645058 10.0391 0.553226C9.70802 0.064682 9.05988 -0.133675 8.52798 0.0940685Z" fill="#FF9100"/>
</svg>
