<svg width="25" height="24" viewBox="0 0 25 24" fill="none" xmlns="http://www.w3.org/2000/svg">
    <path d="M11.4295 0.0291061C9.10938 0.25436 6.96775 1.10845 5.08913 2.55384C4.1733 3.25776 2.98507 4.58113 2.29937 5.66048C2.00349 6.12506 1.42581 7.30765 1.21916 7.87079C0.261064 10.48 0.261064 13.5209 1.21447 16.1067C1.38824 16.5806 1.91895 17.6975 2.16787 18.1199L2.30407 18.3545L1.63246 20.7901C1.26143 22.1322 0.956154 23.2867 0.956154 23.3571C0.956154 23.5401 1.13462 23.7278 1.33188 23.756C1.45869 23.7747 2.06454 23.6058 3.86332 23.0473C5.16427 22.6485 6.25387 22.32 6.28675 22.32C6.31962 22.32 6.6296 22.4654 6.97245 22.6438C9.96885 24.1971 13.496 24.427 16.638 23.2773C17.2015 23.0708 18.3851 22.4936 18.85 22.1979C20.3576 21.2406 21.7619 19.8375 22.72 18.3311C23.0159 17.8665 23.5936 16.6839 23.8002 16.1208C24.0303 15.4919 24.2793 14.5252 24.4014 13.779C24.4859 13.2488 24.5 12.9531 24.5 11.9958C24.5 10.6912 24.4296 10.0764 24.1337 8.95014C23.9082 8.10543 23.7016 7.55637 23.2883 6.71636C22.6683 5.45399 22.0249 4.55767 20.9917 3.52056C19.9537 2.48814 19.0567 1.84522 17.7933 1.22577C16.638 0.657942 15.5671 0.320059 14.3179 0.122961C13.6275 0.0150261 12.087 -0.0365944 11.4295 0.0291061ZM14.3179 1.05683C16.7225 1.4698 18.7702 2.55384 20.4704 4.30425C22.0907 5.9749 23.1004 7.98811 23.4855 10.3298C23.6077 11.0619 23.6077 12.9296 23.4855 13.6617C23.1004 16.0034 22.0907 18.0166 20.4704 19.6873C18.7702 21.4377 16.7131 22.5264 14.3179 22.9347C13.5899 23.0614 12.1527 23.1037 11.4201 23.0286C9.77629 22.8502 8.32975 22.381 6.86912 21.5409C6.67187 21.4283 6.46052 21.3345 6.39947 21.3345C6.33841 21.3345 5.35213 21.6207 4.20617 21.9727C3.06491 22.3246 2.1162 22.6062 2.10681 22.5968C2.09742 22.5874 2.35573 21.6395 2.67509 20.4898C3.079 19.0444 3.25747 18.3498 3.24338 18.2372C3.22929 18.148 3.12596 17.9134 3.00385 17.7163C2.22892 16.4352 1.68412 14.8396 1.49156 13.2628C1.38824 12.4275 1.42111 11.0009 1.56201 10.189C1.95182 7.91303 2.95219 5.95143 4.54902 4.30425C6.43704 2.36143 8.65381 1.28678 11.4764 0.948896C11.5657 0.93951 12.1152 0.934818 12.6975 0.944202C13.5054 0.953588 13.8858 0.981747 14.3179 1.05683Z" fill="#DADADA"/>
    <path d="M7.41308 4.53656C6.8401 4.59757 6.71799 4.64919 6.47377 4.92137C5.40765 6.10865 4.75013 7.79807 4.82058 9.18245C4.86285 10.0084 5.02723 10.5809 5.49219 11.5805C6.72738 14.2131 8.73281 16.4985 11.0059 17.8501C12.3633 18.6572 13.6736 19.089 15.2141 19.2298C18.0649 19.4879 19.8402 18.3522 20.4742 15.8556C20.5963 15.377 20.6151 15.1376 20.54 15.0015C20.5118 14.9546 20.2018 14.7387 19.8449 14.5276C19.4926 14.3117 18.8257 13.8987 18.3608 13.6031C17.9005 13.3074 17.4121 13.0165 17.2805 12.9555C16.9894 12.8194 16.5714 12.8053 16.3271 12.9226C16.1581 13.0024 16.1205 13.0446 15.6508 13.6782C15.3409 14.0958 14.6223 14.8795 14.4673 14.9593C14.3593 15.0203 14.2231 14.9687 13.7065 14.6777C12.584 14.0489 11.0482 12.8288 10.2921 11.9747C9.72848 11.3318 9.31519 10.6607 9.31519 10.3744C9.31519 10.3369 9.47487 10.121 9.66743 9.89575C10.2874 9.17775 10.5128 8.58646 10.3719 8.04209C10.2028 7.3851 9.08036 5.21233 8.68585 4.7759C8.4792 4.54595 8.0659 4.47086 7.41308 4.53656ZM8.28194 5.81301C8.40875 6.02418 8.73281 6.62956 8.99582 7.15046C9.5641 8.28143 9.58289 8.38467 9.31519 8.82579C9.22595 8.97596 8.97703 9.28569 8.77039 9.51563C8.35709 9.96145 8.31482 10.06 8.37587 10.426C8.59661 11.7353 10.184 13.5092 12.4572 14.9921C13.5139 15.6867 14.1902 15.9776 14.5378 15.8979C14.998 15.7899 15.6837 15.1845 16.3412 14.3023L16.7592 13.7439L16.9142 13.8049C16.9988 13.8424 17.4402 14.1099 17.9005 14.4055C18.3561 14.6965 18.9243 15.0485 19.1545 15.1892C19.3893 15.3253 19.5866 15.4473 19.6006 15.4567C19.6852 15.5318 19.2202 16.7613 18.9901 17.057C18.6895 17.4465 18.3514 17.7281 17.9381 17.9298C17.3792 18.2067 16.9988 18.2912 16.1862 18.3193C13.8145 18.4085 11.5648 17.4887 9.51714 15.5834C8.11756 14.2835 6.69451 12.214 6.04638 10.534C5.57673 9.32323 5.65657 8.14533 6.3 6.84543C6.49255 6.45592 6.99509 5.691 7.14538 5.5549C7.22991 5.47982 7.39429 5.44697 7.7982 5.43758L8.04242 5.4282L8.28194 5.81301Z" fill="#DADADA"/>
</svg>
